<svg width="132" height="60" viewBox="0 0 132 60" fill="none" xmlns="http://www.w3.org/2000/svg"><path fill-rule="evenodd" clip-rule="evenodd" d="M80.767 16.451H52.32V43.46h28.447V16.45zm-10.96 12.89s2.481-1.066 2.46-3.891c0 0 .377-4.63-5.712-5.195h-6.759v19.41h7.746s6.472.022 6.472-5.478c0 0 .151-3.738-4.207-4.847zm-2.956 7.324s3.625.174 3.625-2.76c0 0 .108-2.565-3.625-2.543h-3.624v5.303h3.624zm-.863-13.389h-2.761v5.021h2.351s3.172-.044 3.172-2.717c0 0 .108-2.151-2.762-2.304zm-18.026-6.825H19.515V43.46h28.447V16.45zm-10.96 12.89s2.482-1.066 2.46-3.891c0 0 .377-4.63-5.712-5.195h-6.758v19.41h7.745s6.473.022 6.473-5.478c0 0 .15-3.738-4.207-4.847zm-2.955 7.324s3.624.174 3.624-2.76c0 0 .108-2.565-3.624-2.543h-3.625v5.303h3.625zm-.863-13.389h-2.762v5.021h2.352s3.171-.044 3.171-2.717c0 0 .108-2.151-2.761-2.304zm80.388 20.183H85.124V16.45h28.448v27.01zm-5.804-18.226v-3.587c-3.15-1.326-5.329-1.543-5.329-1.543-3.646-.348-5.674.435-5.674.435-7.595 2.347-7.357 9.417-7.357 9.417.216 6.874 5.911 8.971 5.911 8.971 6.775 2.695 12.622-.804 12.622-.804v-3.717c-4.358 2.804-7.573 2.413-7.573 2.413-7.66-.37-7.4-6.863-7.4-6.863.323-7.058 7.486-6.918 7.486-6.918 3.84.044 7.314 2.196 7.314 2.196z" fill="#8A8C91"/></svg>