<svg width="213" height="24" viewBox="0 0 213 24" fill="none" xmlns="http://www.w3.org/2000/svg"><path fill-rule="evenodd" clip-rule="evenodd" d="M29.5 1h-26c-1.6 0-3 1.3-3 3v16c0 1.7 1.3 3 3 3h26c1.7 0 3-1.3 3-3V4c0-1.7-1.3-3-3-3" fill="#383C43"/><path fill-rule="evenodd" clip-rule="evenodd" d="M12.2 5.4a6.6 6.6 0 110 13.2 6.6 6.6 0 110-13.2" fill="#EB001B"/><path fill-rule="evenodd" clip-rule="evenodd" d="M21 5.5c3.6.1 6.5 3 6.4 6.6-.1 3.6-3 6.5-6.6 6.4-3.6-.1-6.4-2.9-6.4-6.5s3-6.5 6.6-6.5" fill="#00A2E5"/><path fill-rule="evenodd" clip-rule="evenodd" d="M14.4 12c0-1.9.8-3.6 2.2-4.8 2.7 2.3 2.9 6.4.6 9l-.6.6a6.236 6.236 0 01-2.2-4.8" fill="#7375CF"/><path fill-rule="evenodd" clip-rule="evenodd" d="M65.5 1h-26c-1.6 0-3 1.3-3 3v16c0 1.7 1.3 3 3 3h26c1.7 0 3-1.3 3-3V4c0-1.7-1.3-3-3-3z" fill="#F8F8F8"/><path d="M36.5 4a3 3 0 013-3h26a3 3 0 013 3h-32z" fill="#1A1F71"/><path d="M36.5 20h32a3 3 0 01-3 3h-26a3 3 0 01-3-3z" fill="#F7B600"/><path fill-rule="evenodd" clip-rule="evenodd" d="M61.3 6.1h1.6l1.6 7.7h-2s-.1-.9-.2-1.2h-2.6c-.1.2-.4 1.2-.4 1.2h-2.1l3-7.1c.2-.4.6-.7 1.1-.6zm-.1 2.8s-.6 1.8-.8 2.2h1.7c-.1-.4-.5-2.2-.5-2.2l-.1-.7c-.1.3-.3.7-.3.7z" fill="#1A1F71"/><path d="M55.9 6c.6 0 1.2.1 1.8.3L57.4 8h-.1c-.5-.2-1-.3-1.5-.3-.8 0-1.2.4-1.2.7 0 .374.35.573.97.926l.13.074c1.2.5 1.7 1.2 1.7 2.1 0 1.6-1.4 2.6-3.5 2.6-.8 0-1.6-.1-2.3-.4l.3-1.7.3.1c.6.3 1.2.4 1.9.4.5.1 1.1-.3 1.2-.8.1-.4-.2-.6-1-1-1-.3-1.7-1.1-1.8-2.1C52.5 7 53.9 6 55.9 6zm-6.3.2l-1.3 7.7h2l1.3-7.7h-2zm-6.8-.1h-3.3v.2c.84.152 1.635.48 2.343.938A6.492 6.492 0 0041.6 7.1l1.8 6.8h2.1l3.2-7.7-2.1-.1-2 5.3-.2-1.1-.7-3.5a.96.96 0 00-.9-.7z" fill="#1A1F71"/><path fill-rule="evenodd" clip-rule="evenodd" d="M56.773 18c.27 0 .482-.07.578-.117l-.063-.274a1.045 1.045 0 01-.449.095c-.4 0-.699-.287-.699-.753 0-.416.25-.761.712-.761.2 0 .336.05.424.096l.083-.28a1.15 1.15 0 00-.508-.107c-.657 0-1.081.453-1.081 1.073 0 .616.395 1.028 1.002 1.028zm-1.768-1.248c.004-.23-.096-.591-.508-.591-.374 0-.532.337-.562.59h1.07zm-1.074.262c.009.495.32.699.691.699.262 0 .425-.046.558-.104l.066.262a1.645 1.645 0 01-.674.129c-.62 0-.99-.412-.99-1.02 0-.607.358-1.081.944-1.081.662 0 .833.574.833.944a.874.874 0 01-.013.17h-1.414zm-3.065-.375h1.086v-.3h-1.086v-.885h1.153v-.304H50.5v2.804h1.581v-.304h-1.215v-1.01zM53.008 15h-.366v2.954h.366V15zm5.37.458v.482h.524v.279h-.524v1.086c0 .25.07.391.274.391.1 0 .159-.008.213-.025l.016.28c-.07.024-.183.049-.324.049a.522.522 0 01-.395-.154c-.1-.112-.142-.291-.142-.528v-1.1h-.312v-.278h.312v-.374l.358-.108zm1.019.482c.012.188.016.391.016.629v1.385h.367v-1.073c0-.059.004-.121.012-.17.05-.276.233-.467.49-.467.051 0 .088 0 .126.009v-.346l-.012-.002a.68.68 0 00-.088-.006c-.246 0-.47.17-.562.44h-.012l-.017-.399h-.32zm1.668 1.011c0 .441.25.774.607.774.35 0 .611-.329.611-.782 0-.341-.17-.77-.603-.77-.428 0-.615.4-.615.779zm1.593-.02c0 .744-.52 1.069-1.003 1.069-.54 0-.965-.4-.965-1.036 0-.67.445-1.065.999-1.065.578 0 .97.42.97 1.031zm.545-.99c.012.166.016.332.016.544v1.47h.366v-1.212a.52.52 0 01.025-.17.528.528 0 01.491-.375c.346 0 .466.27.466.595v1.161h.366v-1.198c0-.69-.433-.857-.711-.857a.746.746 0 00-.666.374h-.008l-.021-.333h-.324z" fill="#1A1F71"/><path fill-rule="evenodd" clip-rule="evenodd" d="M101.5 1h-26c-1.6 0-3 1.3-3 3v16c0 1.7 1.3 3 3 3h26c1.7 0 3-1.3 3-3V4c0-1.7-1.3-3-3-3" fill="#383C43"/><path fill-rule="evenodd" clip-rule="evenodd" d="M84.2 5.4a6.6 6.6 0 110 13.2 6.6 6.6 0 110-13.2" fill="#F22F12"/><path fill-rule="evenodd" clip-rule="evenodd" d="M93 5.5c3.6.1 6.5 3 6.4 6.6-.1 3.6-3 6.5-6.6 6.4-3.6-.1-6.4-2.9-6.4-6.5s3-6.5 6.6-6.5" fill="#F79F1A"/><path fill-rule="evenodd" clip-rule="evenodd" d="M86.4 12c0-1.9.8-3.6 2.2-4.8 2.7 2.3 2.9 6.4.6 9l-.6.6a6.236 6.236 0 01-2.2-4.8" fill="#FF5F01"/><path fill-rule="evenodd" clip-rule="evenodd" d="M111.5 22.5c-1.399 0-2.5-1.1-2.5-2.5V4c0-1.4 1.101-2.5 2.5-2.5h26c1.4 0 2.5 1.1 2.5 2.5v16c0 1.4-1.1 2.5-2.5 2.5h-26z" fill="#F2F2F2"/><path fill-rule="evenodd" clip-rule="evenodd" d="M137.5 1h-26c-1.6 0-3 1.3-3 3v16c0 1.7 1.301 3 3 3h26c1.7 0 3-1.3 3-3V4c0-1.7-1.3-3-3-3m0 1c1.101 0 2 .9 2 2v16c0 1.1-.899 2-2 2h-26c-1.1 0-2-.9-2-2V4c0-1.1.9-2 2-2h26" fill="#D8D8D8"/><path fill-rule="evenodd" clip-rule="evenodd" d="M133.3 8.101h1.6l1.599 7.699h-2s-.099-.899-.199-1.199h-2.6c-.1.199-.4 1.199-.4 1.199h-2.1l3-7.099c.2-.401.6-.701 1.1-.6zm-.1 2.8s-.6 1.8-.8 2.2h1.7c-.101-.4-.5-2.2-.5-2.2l-.101-.7c-.099.299-.299.7-.299.7z" fill="url(#paint0_linear)"/><path d="M127.9 8c.599 0 1.2.101 1.8.3l-.3 1.7h-.1c-.5-.2-1-.299-1.5-.299-.801 0-1.2.4-1.2.7 0 .373.35.573.97.926l.13.074c1.2.5 1.7 1.2 1.7 2.099 0 1.601-1.401 2.601-3.5 2.601-.8 0-1.6-.101-2.3-.4l.3-1.701.3.101c.6.3 1.2.399 1.9.399.5.101 1.1-.299 1.2-.799.1-.401-.2-.6-1-1-1-.3-1.7-1.1-1.801-2.1C124.499 9 125.9 8 127.9 8z" fill="url(#paint1_linear)"/><path d="M121.6 8.201l-1.3 7.7h2l1.3-7.7h-2z" fill="url(#paint2_linear)"/><path d="M114.8 8.101h-3.301V8.3c.84.153 1.636.48 2.344.938a6.922 6.922 0 00-.243-.137l1.8 6.8h2.099l3.201-7.7-2.1-.1-2 5.3-.2-1.101-.701-3.5a.96.96 0 00-.899-.699z" fill="url(#paint3_linear)"/><path fill-rule="evenodd" clip-rule="evenodd" d="M173.5 1h-26c-1.601 0-3 1.3-3 3v16c0 1.7 1.3 3 3 3h26c1.7 0 3-1.3 3-3V4c0-1.7-1.3-3-3-3" fill="#006FCF"/><path fill-rule="evenodd" clip-rule="evenodd" d="M150.5 12.2h1.7l-.801-2-.899 2zm14.2-2v1.3h1.9v1h-1.9v1.3h2.1l1.5-1.8-1.3-1.7-2.3-.1zm6.1 4.8l-1.6-1.9-1.7 1.9h-4.2V9.1h4.4l1.5 1.9 1.6-1.9h1.599L170 12l2.3 3h-1.5zm-8.401 0H160.8v-4.4l-1.7 4.4h-1.3l-1.901-4.4V15H153.2l-.5-1.5H150l-.5 1.5H148l2.399-5.9h1.801l2.3 5.6V9.1h2.2l1.699 3.9 1.701-3.9h2.299V15zm8.901-3l1.8-2.3 1.4-1.7h-4.2l-.3.4-.8.9-.7-.9-.3-.4h-8.7l-.3.6-.801 1.8-.799-1.8-.201-.6H153.5v1.5l-.3-.9-.301-.6H149.8l-.3.6-2.4 5.9-.6 1.5h3.7l.199-.7.301-.8h1.3l.3.8.2.7h4.399v-.5l.201.5h2.6l.1-.1v.1h8.2l.3-.3.9-1 .9 1 .299.4h4.101l-1.3-1.7-1.9-2.4z" fill="#fff"/><path fill-rule="evenodd" clip-rule="evenodd" d="M183.081 23c-1.446 0-2.581-1.152-2.581-2.619V3.619c0-1.466 1.135-2.619 2.581-2.619h26.838c1.446 0 2.581 1.153 2.581 2.619v16.762c0 1.467-1.135 2.619-2.581 2.619h-26.838z" fill="#F2F2F2"/><path fill-rule="evenodd" clip-rule="evenodd" d="M194.5 22l17-6v4c0 1.1-.9 2-2 2h-15z" fill="#F16000"/><path fill-rule="evenodd" clip-rule="evenodd" d="M207.3 11v-1h.8c.301 0 .5.1.6.4v.1c0 .3-.2.5-.5.5h-.9zm-.8 1.8h.8v-1.1h.601l.699 1.1h.9l-.8-1.3c.5-.2.8-.6.701-1.1 0-.3-.101-.6-.301-.8-.3-.3-.6-.4-1-.4h-1.6v3.6zm-3.3 0h2.6v-.7h-1.899v-.7h1.599v-.7h-1.599v-.8h1.799v-.7h-2.6l.1 3.6zm-2.6 0h.7l1.4-3.6h-.799L201 11.7l-.9-2.5h-.8l1.3 3.6zm-6.9.1c.5 0 1.1-.2 1.4-.6l-.5-.5c-.199.3-.6.4-.9.4-.6 0-1-.5-1-1.1 0-.6.4-1.1 1-1.1.3 0 .701.2.9.4l.5-.6c-.3-.4-.8-.6-1.4-.6-1 0-1.799.8-1.799 1.8v.1c0 .9.699 1.7 1.799 1.8-.1 0 0 0 0 0zm-3.5 0c.6.1 1.201-.3 1.3-1v-.2c0-.6-.5-1.1-1.099-1.1-.601-.1-.801-.2-.801-.4s.2-.3.4-.3c.3 0 .6.1.901.4l.399-.6c-.3-.4-.8-.5-1.2-.5-.6-.1-1.199.3-1.199.9v.1c0 .7.399.9 1.099 1.1.6.2.7.3.7.5s-.2.4-.5.3c-.4 0-.7-.2-1-.4l-.4.6c.3.4.9.6 1.4.6zm-2.799-.1h.8V9.2h-.8v3.6zm-3.101-.7V9.9h.601c.599 0 1 .4 1 1v.1c0 .6-.401 1-.901 1.1h-.7zm-.8.7h1.3c1 0 1.8-.7 1.8-1.7V11c0-1-.699-1.8-1.699-1.8H183.5v3.6z" fill="#000"/><path fill-rule="evenodd" clip-rule="evenodd" d="M197.25 13a2 2 0 100-4 2 2 0 000 4z" fill="#F16000"/><path fill-rule="evenodd" clip-rule="evenodd" d="M209.5 1h-26c-1.6 0-3 1.3-3 3v16c0 1.7 1.301 3 3 3h26c1.7 0 3-1.3 3-3V4c0-1.7-1.3-3-3-3m0 1c1.101 0 2 .9 2 2v16c0 1.1-.899 2-2 2h-26c-1.1 0-2-.9-2-2V4c0-1.1.9-2 2-2h26" fill="#D8D8D8"/><defs><linearGradient id="paint0_linear" x1="111.5" y1="13" x2="136.5" y2="13" gradientUnits="userSpaceOnUse"><stop stop-color="#22245A"/><stop offset="1" stop-color="#2548A1"/></linearGradient><linearGradient id="paint1_linear" x1="111.5" y1="13" x2="136.5" y2="13" gradientUnits="userSpaceOnUse"><stop stop-color="#22245A"/><stop offset="1" stop-color="#2548A1"/></linearGradient><linearGradient id="paint2_linear" x1="111.5" y1="13" x2="136.5" y2="13" gradientUnits="userSpaceOnUse"><stop stop-color="#22245A"/><stop offset="1" stop-color="#2548A1"/></linearGradient><linearGradient id="paint3_linear" x1="111.5" y1="13" x2="136.5" y2="13" gradientUnits="userSpaceOnUse"><stop stop-color="#22245A"/><stop offset="1" stop-color="#2548A1"/></linearGradient></defs></svg>