<svg width="555" height="555" viewBox="0 0 555 555" fill="none" xmlns="http://www.w3.org/2000/svg"><path d="M409.897 95.55c0-27.149 22.009-49.157 49.158-49.157 27.148 0 49.157 22.008 49.157 49.157v413.047h-98.315V95.55zm-123.314 97.037c0-27.148 22.008-49.157 49.157-49.157 27.149 0 49.157 22.009 49.157 49.157v316.01h-98.314v-316.01zM163.269 279.41c0-27.149 22.008-49.157 49.157-49.157 27.149 0 49.157 22.008 49.157 49.157v229.187h-98.314V279.41zM39.954 371.34c0-27.149 22.008-49.157 49.157-49.157 27.149 0 49.158 22.009 49.158 49.157v137.257H39.954V371.34z" fill="#E2F1FF"/><path d="M395.915 508.602h7.156l4.763-60.257a3.566 3.566 0 00-3.274-3.839 3.566 3.566 0 00-3.838 3.274l-4.807 60.822zm-8.693-45.768l3.307 45.768h3.774l-3.328-46.043a1.88 1.88 0 00-2.016-1.736 1.883 1.883 0 00-1.742 2.011m68.026 24.892l1.51 20.876h3.774l-1.532-21.15a1.878 1.878 0 00-2.011-1.742 1.878 1.878 0 00-1.741 2.01" fill="#0EAD69"/><path d="M192.305 508.602h-2.349l-7.161-26.301a2.527 2.527 0 011.779-3.107 2.527 2.527 0 013.113 1.779l2.484 9.129 5.032 18.505H192.3l.005-.005z" fill="#9BDDB7"/><path d="M325.762 143.269l-29.812 84.734c17.52 6.164 36.21-5.588 38.25-24.045l6.337-57.344-14.775-3.337v-.008z" fill="#663C2B"/><path d="M330.848 126.784v19.478h12.599l2.895-2.896a17.322 17.322 0 005.07-12.247v-4.335h-20.564z" fill="#663C2B"/><path d="M245.396 230.185h65.901v-45.787l-57.539-41.812" fill="#4680E1"/><path d="M85.64 378.359l109.071 7.388c12.974.877 24.922-7.072 29.121-19.38l4.74-13.889H92.008l-6.368 25.889v-.008z" fill="#824F36"/><path d="M92.008 352.47s-9.54-6.502-18-8.175l-12.982 61.409c7.927 1.567 16.537-27.9 24.614-27.345l6.368-25.889z" fill="#000"/><path d="M85.64 378.352l8.482.615 6.495-26.497h-8.61l-6.367 25.882z" fill="#fff"/><path d="M357.682 475.332l-22.132 14.857-128.368-228.205 54.014 1.815 96.486 211.533z" fill="#824F36"/><path d="M335.551 490.19s2.677 11.234 7.807 18.164l56.421-35.144c-4.807-6.495-37.634 8.145-42.089 2.123l-22.139 14.857z" fill="#000"/><path d="M357.682 475.332l-3.525-7.732-22.725 15.277 4.118 7.312 22.132-14.857z" fill="#fff"/><path d="M261.196 263.807l41.107 90.11-32.715 19.605a7.497 7.497 0 01-10.274-2.557l-50.317-83.474 52.199-23.684z" fill="#FF7059"/><path d="M183.19 351.615l40.881 14.04 37.124-101.856h-60.028l-23.385 77.249a8.552 8.552 0 005.408 10.567z" fill="#FF7059"/><path d="M237.774 134.307a166.318 166.318 0 00-27.269 52.769l-19.485 63.561c-2.01 6.547 2.888 13.17 9.735 13.17h60.629a5.64 5.64 0 005.617-5.16l5.88-69.554-14.085-41.909-21.022-12.877z" fill="#4680E1"/><path d="M248.364 97.43l-18.652-8.835-.63-.3a11.8 11.8 0 00-5.64-.968c-6.548.48-11.475 6.18-10.995 12.728.48 6.547 6.172 11.475 12.727 10.995a11.786 11.786 0 005.28-1.68c.053-.03.105-.068.165-.105l.578-.383 17.174-11.452h-.007zm25.816 125.337c-.043.027-.08.049-.118.075l.124-.075h-.006zm-1.128-15.5l-.135-.064c.043.027.086.043.13.064" fill="#000"/><path d="M261.354 136.219l-22.057-4.44 3.9-36.479c1.447-13.552 13.604-23.362 27.157-21.907 13.552 1.448 23.354 13.605 21.907 27.157l-1.508 14.107c-1.545 14.437-15.165 24.427-29.399 21.562z" fill="#824F36"/><path d="M292.013 102.882l2.183 5.168c.39.93.172 2.002-.555 2.7l-2.753 2.64" fill="#824F36"/><path d="M289.33 104.42c-.727 2.055-1.507 3.66-2.115 3.442-.6-.21-.21-1.95.51-4.005.728-2.054 1.508-3.66 2.115-3.442.6.21.21 1.95-.51 4.005zm-4.193-6.802c.157-.045.3-.12.427-.225.023-.015 2.228-1.778 5.723-2.82a18.094 18.094 0 011.957-.465c.045-.007.09-.022.135-.03.608-.18.975-.78.863-1.403a1.24 1.24 0 00-1.433-.997c-.743.135-1.492.315-2.227.532-3.975 1.178-6.465 3.18-6.57 3.263a1.236 1.236 0 001.132 2.145" fill="#000"/><path d="M284.289 123.17c-4.755-1.898-8.025-4.396-8.025-4.396" stroke="#000" stroke-width=".968" stroke-linecap="round" stroke-linejoin="round"/><path d="M243.204 95.3l-2.198 20.565c2.453.262 4.875-.18 7.02-1.2a13.03 13.03 0 005.347-4.71l6.443-9.99 24.802-20.01a4.996 4.996 0 00-4.433-5.497l-9.532-1.02a1.717 1.717 0 00-.195-.03h-.097c-.105-.022-.203-.023-.308-.037-.277-.023-.555-.053-.832-.068a27.241 27.241 0 00-.78-.03c-.105 0-.21-.007-.308-.015-.322 0-.637 0-.952.008h-.09c-12.188.307-22.56 9.584-23.887 22.034z" fill="#000"/><path d="M262.298 105.013a5.281 5.281 0 00-10.5-1.125 5.28 5.28 0 0010.5 1.125z" fill="#824F36"/><path d="M243.408 93.365l-1.125 10.545a1.97 1.97 0 01-1.815 1.755 1.96 1.96 0 01-2.1-1.815l-.825-11.317a1.966 1.966 0 012.685-1.973l1.95.773a1.968 1.968 0 011.23 2.04" fill="#4680E1"/><path d="M257.326 107.6l1.703 3.72c.262.57.938.817 1.508.562.57-.262.817-.937.562-1.507l-1.702-3.713c-.15-.33-.12-.705.045-1.027a2.59 2.59 0 00-2.94-3.683 2.603 2.603 0 00-1.868 3.15c.248.953.998 1.65 1.89 1.868.353.082.66.3.81.63" fill="#fff"/><path d="M240.998 115.865l-3.225 18.442 19.133 18.112c.997.945 2.639.315 2.752-1.05l1.537-18.675" fill="#824F36"/><path d="M339.99 137.344l6.847 10.44a9.006 9.006 0 01-.907 11.04l-7.447 8.07-9.323-20.543 10.83-9.007z" fill="#663C2B"/><path d="M323.303 138.545c-1.005 5.309 2.482 10.432 7.792 11.437 5.31 1.005 10.433-2.483 11.438-7.793 1.005-5.309-2.483-10.432-7.793-11.437-5.31-1.005-10.432 2.483-11.437 7.793z" fill="#BCBCBC"/><path d="M325.29 140.366a7.629 7.629 0 007.627 7.628 7.625 7.625 0 007.628-7.628 7.618 7.618 0 00-7.628-7.619 7.622 7.622 0 00-7.627 7.619z" fill="#824F36"/><path d="M325.29 140.367v89.825c18.57 0 32.302-17.287 28.102-35.376l-13.057-56.197-15.045 1.755v-.007z" fill="#824F36"/><path d="M322.155 137.164l1.313 1.455 8.88-7.987-1.313-1.455a2.114 2.114 0 00-2.992-.158l-5.73 5.153a2.114 2.114 0 00-.158 2.992z" fill="#BCBCBC"/><path d="M245.395 230.185h79.896v-32.894l-84.771-54.705" fill="#4680E1"/><path d="M351.404 126.8a3.795 3.795 0 01-3.795 3.795h-16.792c-2.617 0-4.447-2.588-3.577-5.055l3.315-9.42c.187-.533.494-1.02.892-1.425l.135-.135a3.784 3.784 0 014.89-.397l13.335 9.555a3.78 3.78 0 011.582 3.082" fill="#824F36"/><path d="M236.148 332.528l4.304-11.797c.495-1.365 2.521-1.005 2.521.442v22.672l-6.825-11.317z" fill="#E55041"/><path d="M192.305 508.602l-2.134-18.505-2.108-18.274a2 2 0 011.979-2.226 2.002 2.002 0 011.984 1.769l4.295 37.236h-4.016z" fill="#9BDDB7"/><path d="M240.869 508.602h4.887l5.199-45.075a2.425 2.425 0 10-4.817-.554l-5.263 45.629h-.006z" fill="#0EAD69"/><path d="M50.35 508.602h3.731l3.973-34.446a1.85 1.85 0 00-1.843-2.064c-.941 0-1.737.704-1.844 1.639l-4.022 34.871h.005zm26.661 0l3.726-.253 1.608-34.639a1.855 1.855 0 00-3.705-.172l-1.629 35.064zm167.821 0h11.564l4.989-22.338c.785-3.527-1.892-6.871-5.505-6.871a5.639 5.639 0 00-5.506 4.413l-5.537 24.801-.005-.005z" fill="#9BDDB7"/><path d="M78.42 508.602h-8.855l-3.263-41.252a4.413 4.413 0 014.053-4.747 4.41 4.41 0 014.748 4.053l3.317 41.951v-.005z" fill="#0EAD69"/><path d="M38.06 487.726l1.51 20.876h3.775l-1.532-21.15a1.879 1.879 0 00-2.011-1.742 1.879 1.879 0 00-1.742 2.01" fill="#9BDDB7"/><path d="M73.108 499.172l1.36-3.199a22.994 22.994 0 0114.538-13.021l38.854-11.661c10.839-3.253 22.435 1.876 27.322 12.086l7.43 15.515c2.156 4.5-1.123 9.705-6.113 9.705H79.35c-4.855 0-8.14-4.957-6.236-9.43" fill="#BCBCBC"/><path d="M144.129 502.951l1.822-3.892a9.577 9.577 0 0110.661-5.307l20.183 4.296a3.966 3.966 0 013.14 3.882v2.699a3.968 3.968 0 01-3.968 3.967h-28.252c-2.904 0-4.823-3.016-3.592-5.645" fill="#C3DCF4"/><path d="M150.473 508.602h-7.156l-4.763-60.257a3.567 3.567 0 117.112-.565l4.807 60.822z" fill="#0EAD69"/><path d="M175.29 462.834l-3.306 45.768h-3.774l3.328-46.043a1.879 1.879 0 012.016-1.736 1.883 1.883 0 011.742 2.011" fill="#9BDDB7"/><path d="M153.913 487.726l-1.511 20.876h-3.774l1.527-21.15a1.878 1.878 0 012.011-1.742 1.88 1.88 0 011.742 2.01m-21.967 20.882h-2.35l-7.161-26.301a2.528 2.528 0 011.78-3.107 2.53 2.53 0 013.113 1.779l2.483 9.129 5.033 18.505h-2.904l.006-.005z" fill="#0EAD69"/><path d="M131.941 508.602l-2.134-18.505-2.108-18.274a2 2 0 011.979-2.226c.505 0 .973.188 1.328.506.354.317.596.758.656 1.263l4.295 37.236h-4.016z" fill="#0EAD69"/><path d="M488.516 499.172l-1.36-3.199a22.994 22.994 0 00-14.537-13.021l-38.854-11.661c-10.844-3.253-22.435 1.876-27.323 12.086l-7.43 15.515c-2.156 4.5 1.124 9.705 6.113 9.705h77.15c4.854 0 8.139-4.957 6.236-9.43" fill="#C3DCF4"/><path d="M417.491 502.951l-1.823-3.892a9.577 9.577 0 00-10.661-5.307l-20.182 4.296a3.965 3.965 0 00-3.14 3.882v2.699a3.968 3.968 0 003.967 3.967h28.253c2.903 0 4.822-3.016 3.591-5.645" fill="#E3E3E3"/><path d="M277.428 508.602h-21.516a3.114 3.114 0 01-3-3.957l1.704-6.086a3.999 3.999 0 011.715-2.301l1.661-1.048a3.995 3.995 0 014.748.36l3.354 2.908a3.99 3.99 0 001.952.92l4.989.838a7.76 7.76 0 016.291 6.011 1.943 1.943 0 01-1.898 2.35" fill="#C3DCF4"/><path d="M193.649 498.247a15.15 15.15 0 018.14-8.403l9.026-3.866c4.022-1.725 8.667.307 10.135 4.425l3.768 10.581c1.323 3.709-1.43 7.613-5.371 7.613h-18.639c-5.344 0-9.011-5.377-7.064-10.355" fill="#BCBCBC"/><path d="M215.977 503.978a6.76 6.76 0 013.634-3.752l4.027-1.726a3.382 3.382 0 014.521 1.978l1.683 4.726c.592 1.656-.64 3.398-2.398 3.398h-8.322c-2.387 0-4.022-2.398-3.156-4.624" fill="#E3E3E3"/><path d="M496.29 508.597h4.887l5.199-45.075a2.425 2.425 0 10-4.817-.554l-5.263 45.629h-.006z" fill="#0EAD69"/><path d="M500.252 508.597h11.565l4.989-22.339c.785-3.527-1.892-6.871-5.505-6.871a5.638 5.638 0 00-5.506 4.414l-5.537 24.801-.006-.005z" fill="#0EAD69"/><path d="M470.474 508.349h-8.855l-3.263-41.252a4.413 4.413 0 014.053-4.747 4.411 4.411 0 014.748 4.053l3.317 41.951v-.005zm-33.189-20.623l1.511 20.876h3.774l-1.532-21.15a1.878 1.878 0 00-2.011-1.742 1.88 1.88 0 00-1.742 2.01" fill="#9BDDB7"/></svg>