<svg width="132" height="60" viewBox="0 0 132 60" fill="none" xmlns="http://www.w3.org/2000/svg"><g clip-path="url(#clip0)" fill="#8A8C97"><path d="M22.997 36.29h4.237l2.271-13H25.27l-.838 4.655h-3.673l.838-4.655H17.36l-2.271 13h4.237l.853-4.865h3.673l-.854 4.865zm8.908-13.016l-1.288 7.233a8.305 8.305 0 00-.161 1.627c0 3.834 3.35 4.414 5.364 4.414 4.22 0 6.04-1.402 6.701-5.188l1.418-8.102h-4.237l-1.208 6.798c-.387 2.126-.66 3.238-2.24 3.238-1.03 0-1.53-.548-1.53-1.676 0-.435.065-.966.194-1.627l1.224-6.733h-4.237v.016zM66.33 36.29h4.237l.596-3.35h1.997c3.69 0 5.735-1.998 5.735-5.639 0-2.561-1.772-4.027-4.881-4.027h-5.413l-2.27 13.016zm6.605-6.556H71.71l.564-3.061h1.144c.934 0 1.434.467 1.434 1.32 0 1.08-.725 1.74-1.917 1.74zM87.126 23c-4.607 0-7.361 2.98-7.361 7.99 0 3.48 2.19 5.574 5.863 5.574 4.607 0 7.362-2.98 7.362-7.99.016-3.496-2.175-5.574-5.864-5.574zm-1.24 10.197c-1.095 0-1.74-.79-1.74-2.11 0-.5.049-.935.145-1.434.322-1.708.87-3.27 2.594-3.27 1.095 0 1.74.79 1.74 2.11 0 .5-.049.934-.145 1.434-.323 1.691-.87 3.27-2.594 3.27zm21.844 3.093h4.237l1.675-9.52h3.189l.613-3.48h-10.842l-.612 3.48h3.383l-1.643 9.52zm-7.024-8.2c-1.337-.418-1.884-.596-1.884-1.224 0-.419.273-.918 1.079-.918.596 0 1.095.338 1.289.838l3.737-1.015c-.435-1.837-2.014-2.771-4.736-2.771-5.123 0-5.525 3.431-5.525 4.478 0 2.127 1.127 3.431 3.576 4.108.644.177 1.385.37 1.385 1.08 0 .563-.419.918-1.144.918-.66 0-1.369-.387-1.61-1.064l-3.69 1c.403 1.932 2.224 3.028 5.075 3.028 2.175 0 5.815-.58 5.815-4.51.016-1.966-1.095-3.255-3.367-3.948zm-87.986 8.2l2.287-13H8v13h4.72zm106.544-13l-2.271 13H124v-13h-4.736zm-70.267 9.166h3.56l.58-3.27h-3.56l.403-2.416h4.978l.612-3.496h-9.215L44.084 36.29h4.237l.676-3.834zm11.099 0h3.576l.58-3.27h-3.56l.403-2.416h4.977l.612-3.496H57.47L55.2 36.29h4.236l.66-3.834z"/></g><defs><clipPath id="clip0"><path fill="#fff" transform="translate(8 23)" d="M0 0h116v13.564H0z"/></clipPath></defs></svg>