<svg width="97" height="97" viewBox="0 0 97 97" fill="none" xmlns="http://www.w3.org/2000/svg"><g clip-path="url(#clip0_3431_50099)"><rect width="97" height="97" rx="5.414" fill="#fff"/><path fill-rule="evenodd" clip-rule="evenodd" d="M21.386-.192c-.282.2-.53.376-.667.47-8.664 5.932-10.925 17.8-5.047 26.5 5.64 8.352 16.951 10.625 25.508 5.514l.81 1.356c-9.249 5.525-21.5 3.086-27.626-5.986C8 18.242 10.447 5.397 19.827-1.025c.127-.086.351-.246.62-.437l.549-.39c.47-.331.991-.695 1.25-.844l.79 1.367c-.18.104-.631.415-1.13.767l-.52.37z" fill="#3E5FFF"/><path d="M49.613 64.877c8.316 0 15.058-6.742 15.058-15.058 0-8.317-6.742-15.059-15.058-15.059-8.317 0-15.059 6.742-15.059 15.059 0 8.316 6.742 15.058 15.059 15.058z" fill="#000"/><path d="M65.228 99.475l-15.901-2.622v-.044l-.13.02-.13-.02v.044l-15.902 2.622-10.18 62.927c-1.14 7.041 4.297 13.424 11.426 13.424H63.98c7.132 0 12.566-6.386 11.427-13.424l-10.18-62.927h.002z" fill="#FF7059"/><path d="M69.055 99.626H36.758l-4.26 7.954a5.926 5.926 0 01-2.946.787 5.94 5.94 0 01-4.93-2.625l-3.959-5.874a16.662 16.662 0 01-1.695-15.374l7.142-18.26a16.785 16.785 0 016.94-8.249l7.99-4.841h16.307l7.99 4.841a16.785 16.785 0 016.941 8.248l7.142 18.26.06.151c2.75 7.24-2.68 14.982-10.422 14.982h-.003z" fill="#FFBD6E"/><path d="M57.354 53.144c-4.443 4.655-11.874 4.657-16.317 0l2.694-15.804h10.934l2.692 15.804h-.003z" fill="#824F36"/><path d="M56.46 47.883c-.36.414-1.353.912-1.785 1.118a8.158 8.158 0 01-3.577.818c-1.44 0-2.796-.37-3.976-1.024-.375-.21-.156-.792.266-.697a8.24 8.24 0 001.803.199c2.333 0 5.206-2.166 6.703-3.736l.564 3.32.003.002z" fill="#663C2B"/><path d="M42.825 35.621c0 1.052-.85 2.763-1.9 2.763h-.02c-1.045-.02-1.88-1.721-1.88-2.763a1.91 1.91 0 011.693-1.892c.07 0 .138-.008.21-.008.52 0 .988.21 1.33.544.355.347.572.828.572 1.359m16.537-.003c0 1.044-.843 2.743-1.88 2.763h-.02c-.856 0-1.58-1.141-1.818-2.13a2.67 2.67 0 01-.084-.633c0-1.044.85-1.9 1.9-1.9.068 0 .132.008.201.008 0 0 0 .008.008 0 .947.11 1.693.92 1.693 1.892z" fill="#824F36"/><path d="M57.69 33.08c0 .105 0 .217-.008.327v.015l-.013.307-.125 3.154-.056 1.503-.085 2.025c0 .049-.008.097-.008.146a8.206 8.206 0 01-2.262 5.207c-.174.173-.347.342-.529.5a2.833 2.833 0 01-.209.174 8 8 0 01-.71.52c-.09.065-.189.118-.278.182a8.233 8.233 0 01-3.399 1.114 1.041 1.041 0 01-.153.012c-.217.02-.44.028-.661.028-.154 0-.307-.007-.46-.012-.118-.008-.238-.013-.355-.028a6.852 6.852 0 01-.39-.049h-.021a2.388 2.388 0 01-.327-.064c-.084-.008-.166-.028-.25-.048a8.196 8.196 0 01-6.404-7.684l-.07-1.657v-.036l-.012-.335-.064-1.511-.113-2.763-.012-.383-.013-.307a8.49 8.49 0 016.218-8.52c.278-.077.564-.146.855-.195.113-.02.23-.036.348-.049.012-.007.035-.007.056-.007.09-.013.181-.02.278-.028a2.25 2.25 0 01.299-.02 8.386 8.386 0 012.25.18 8.492 8.492 0 016.683 8.299" fill="#824F36"/><path d="M49.19 24.585a8.584 8.584 0 00-8.584 8.585v.367l.086 1.101a.49.49 0 00.486.45c.24 0 .454-.151.538-.376a7.969 7.969 0 014.313-4.548h.005a7.948 7.948 0 016.31 0 7.968 7.968 0 014.31 4.545.576.576 0 00.54.378.485.485 0 00.485-.449l.086-1.118v-.016l.008.016v-.348a8.584 8.584 0 00-8.585-8.585l.002-.002z" fill="#000"/><path d="M51.974 74.458H46.41c-1.14 0-2.063.924-2.063 2.063v12.602c0 1.14.924 2.063 2.063 2.063h5.564c1.14 0 2.064-.923 2.064-2.063V76.521c0-1.14-.924-2.063-2.064-2.063z" fill="#fff"/><path d="M54.993 82.19h-8.016a.763.763 0 00-.69 1.088l.91 1.925a2.893 2.893 0 001.44 1.407l5.801 2.572a1.372 1.372 0 001.928-1.254V83.56a1.37 1.37 0 00-1.37-1.371m-9.508-29.944l-4.45.899 4.67 10.242c1.363 2.988 5.607 2.99 6.971 0l4.676-10.245-5.662-1.443" fill="#824F36"/><path fill-rule="evenodd" clip-rule="evenodd" d="M85.95 54.14c-.591-12.419-12.922-22.093-29.178-22.105l.002-1.579c16.762.012 30.108 10.05 30.753 23.608.323 6.792-3.063 13.292-8.688 18.172-5.628 4.883-13.54 8.188-22.41 8.61a44.1 44.1 0 01-2.467.046l.013-1.58c.79.007 1.582-.006 2.38-.044 8.53-.406 16.1-3.584 21.45-8.225 5.352-4.644 8.44-10.707 8.144-16.904z" fill="#3E5FFF"/><path d="M55.429 30.305c.414-.166 1.343-.398 1.74 0 .399.398.498 1.492.498 1.99H55.43v-1.99z" fill="#000"/><path d="M89.781 48.726a4.06 4.06 0 11-8.12 0 4.06 4.06 0 018.12 0z" fill="#fff"/><path fill-rule="evenodd" clip-rule="evenodd" d="M85.72 51.207a2.481 2.481 0 100-4.963 2.481 2.481 0 000 4.963zm0 1.579a4.06 4.06 0 100-8.12 4.06 4.06 0 000 8.12z" fill="#3E5FFF"/><path d="M15.79 16.693a4.06 4.06 0 11-8.12 0 4.06 4.06 0 018.12 0z" fill="#fff"/><path fill-rule="evenodd" clip-rule="evenodd" d="M11.73 19.174a2.481 2.481 0 100-4.962 2.481 2.481 0 000 4.962zm0 1.58a4.06 4.06 0 100-8.121 4.06 4.06 0 000 8.12z" fill="#3E5FFF"/><path d="M46.368 40.012c0 .72-.092 1.304-.368 1.304-.277 0-.368-.583-.368-1.304 0-.72.091-1.305.368-1.305.276 0 .368.584.368 1.305zm6.413 0c0 .72-.091 1.304-.368 1.304s-.368-.583-.368-1.304c0-.72.091-1.305.368-1.305s.368.584.368 1.305zm-5.934-2.835a.503.503 0 00-.305-.904c-.053 0-1.222.016-2.295.914a.503.503 0 10.646.773 2.871 2.871 0 011.656-.674.535.535 0 00.298-.109zm4.719 0a.503.503 0 01.305-.904c.054 0 1.222.016 2.295.914a.503.503 0 11-.646.773 2.87 2.87 0 00-1.656-.674.535.535 0 01-.298-.109z" fill="#000"/><path fill-rule="evenodd" clip-rule="evenodd" d="M47.838 45.036a.303.303 0 00-.215.566 3.09 3.09 0 00.409.102 6.7 6.7 0 001.175.091 6.7 6.7 0 001.174-.091 3.09 3.09 0 00.295-.066c.038-.01.076-.023.114-.036a.303.303 0 00-.215-.566 2.662 2.662 0 01-.3.072c-.223.04-.574.082-1.069.082-.494 0-.845-.042-1.067-.082a2.658 2.658 0 01-.3-.072h-.001z" fill="#000"/></g><defs><clipPath id="clip0_3431_50099"><rect width="97" height="97" rx="5.414" fill="#fff"/></clipPath></defs></svg>