<svg width="167" height="32" viewBox="0 0 167 32" fill="none" xmlns="http://www.w3.org/2000/svg"><path fill-rule="evenodd" clip-rule="evenodd" d="M3.807 32A20.183 20.183 0 010 20.164C0 9.028 8.954 0 20 0s20 9.028 20 20.164A20.18 20.18 0 0136.193 32l-9.606-15.727-.927 1.58.94 4.39L20 10.858l-4.083 6.951.95 4.436-3.46-5.962L3.807 32z" fill="#7F7AEE"/><path d="M59.88 23.628h3.135V8.75h-3.04v9.709l-6.46-9.71H50v14.878h3.04v-10.26l6.84 10.26zm5.203-5.054c0 3.059 2.45 5.282 5.529 5.282 3.059 0 5.548-2.28 5.548-5.34 0-3.02-2.451-5.262-5.51-5.262-3.078 0-5.567 2.299-5.567 5.32zm3.04-.038c0-1.52 1.102-2.584 2.489-2.584 1.387 0 2.508 1.064 2.508 2.584 0 1.539-1.102 2.603-2.49 2.603-1.386 0-2.507-1.064-2.507-2.603zm16.068-5.054a3.675 3.675 0 00-.798-.114c-1.045 0-2.07.437-2.622 1.596h-.038v-1.482h-2.812v10.146h2.907v-4.446c0-1.881.988-2.87 2.413-2.87.133 0 .551 0 .95.077v-2.907zm8.602 10.146h2.869V8.162h-2.945v6.479h-.038c-1.045-1.235-2.451-1.35-3.04-1.35-2.907 0-4.864 2.68-4.864 5.245 0 2.736 1.88 5.282 4.826 5.282.684 0 2.204-.095 3.154-1.482h.038v1.292zm0-5.092c0 1.539-1.121 2.603-2.508 2.603s-2.508-1.064-2.508-2.603c0-1.52 1.12-2.565 2.508-2.565 1.387 0 2.508 1.045 2.508 2.565zm5.627 5.092h9.423v-2.926h-6.365V8.75h-3.059v14.877zm10.128-5.054c0 3.059 2.451 5.282 5.529 5.282 3.059 0 5.548-2.28 5.548-5.34 0-3.02-2.451-5.262-5.51-5.262-3.078 0-5.567 2.299-5.567 5.32zm3.04-.038c0-1.52 1.102-2.584 2.489-2.584 1.387 0 2.508 1.064 2.508 2.584 0 1.539-1.102 2.603-2.489 2.603-1.387 0-2.508-1.064-2.508-2.603zm14.644 5.32c2.185 0 4.427-1.16 5.073-3.496l-2.698-.817c-.285.779-1.045 1.577-2.337 1.577-1.463 0-2.451-1.083-2.451-2.584 0-1.615 1.121-2.565 2.432-2.565 1.273 0 2.052.798 2.28 1.558l2.698-.817c-.513-2.318-2.812-3.458-4.921-3.458-3.116 0-5.529 2.318-5.529 5.32 0 3.02 2.261 5.282 5.453 5.282zm9.72-5.036l3.591 4.808h3.743l-4.199-5.472 4.085-4.674h-3.781l-3.515 3.99v-9.33h-2.964v15.486h2.964V18.82h.076z" fill="#383C43"/><path d="M146.22 17.415c.114-.665.874-1.767 2.204-1.767 1.482 0 2.109 1.026 2.166 1.767h-4.37zm7.296 1.957c.038-.342.038-.703.038-1.064 0-3.002-2.033-5.073-5.054-5.073-2.926 0-5.377 2.375-5.377 5.3 0 3.155 2.489 5.32 5.567 5.32 1.995 0 3.876-1.044 4.541-3.001l-2.432-.836c-.342.836-1.292 1.349-2.147 1.349-1.235 0-2.318-.722-2.508-1.995h7.372zm8.066-5.89a3.675 3.675 0 00-.798-.114c-1.045 0-2.071.437-2.622 1.596h-.038v-1.482h-2.812v10.146h2.907v-4.446c0-1.881.988-2.87 2.413-2.87.133 0 .551 0 .95.077v-2.907zm3.282 1.393a1.84 1.84 0 001.323-.568c.351-.363.549-.856.549-1.37 0-.513-.198-1.006-.549-1.37a1.84 1.84 0 00-1.323-.567c-1.026 0-1.864.867-1.864 1.937s.838 1.938 1.864 1.938zm0-3.514c.838 0 1.501.71 1.501 1.576 0 .868-.663 1.57-1.501 1.57-.831 0-1.487-.702-1.487-1.57 0-.867.656-1.575 1.487-1.575v-.001zm-.287 1.887h.315l.391.795h.482l-.448-.896a.638.638 0 00.277-.248.66.66 0 00.094-.366c0-.355-.21-.708-.747-.708h-.797v2.218h.433v-.795zm.671-.708c0 .13-.077.296-.343.296h-.328v-.593h.328c.287 0 .343.167.343.297z" fill="#383C43"/></svg>