<svg width="144" height="32" viewBox="0 0 144 32" fill="none" xmlns="http://www.w3.org/2000/svg"><path fill-rule="evenodd" clip-rule="evenodd" d="M3.807 32A20.183 20.183 0 010 20.164C0 9.028 8.954 0 20 0s20 9.028 20 20.164A20.18 20.18 0 0136.193 32l-9.606-15.727-.927 1.58.94 4.39L20 10.858l-4.083 6.951.95 4.436-3.46-5.962L3.807 32z" fill="#43A5A1"/><path d="M59.88 23.619h3.135V8.742h-3.04v9.709l-6.46-9.709H50v14.877h3.04v-10.26l6.84 10.26zm5.203-5.054c0 3.059 2.45 5.282 5.529 5.282 3.059 0 5.548-2.28 5.548-5.339 0-3.021-2.451-5.263-5.51-5.263-3.078 0-5.567 2.299-5.567 5.32zm3.04-.038c0-1.52 1.102-2.584 2.489-2.584 1.387 0 2.508 1.064 2.508 2.584 0 1.539-1.102 2.603-2.49 2.603-1.386 0-2.507-1.064-2.507-2.603zm16.068-5.054a3.675 3.675 0 00-.798-.114c-1.045 0-2.07.437-2.622 1.596h-.038v-1.482h-2.812v10.146h2.907v-4.446c0-1.881.988-2.869 2.413-2.869.133 0 .551 0 .95.076v-2.907zm8.602 10.146h2.869V8.153h-2.945v6.479h-.038c-1.045-1.235-2.451-1.349-3.04-1.349-2.907 0-4.864 2.679-4.864 5.244 0 2.736 1.88 5.282 4.826 5.282.684 0 2.204-.095 3.154-1.482h.038v1.292zm0-5.092c0 1.539-1.121 2.603-2.508 2.603s-2.508-1.064-2.508-2.603c0-1.52 1.12-2.565 2.508-2.565 1.387 0 2.508 1.045 2.508 2.565zm16.475-5.016c0-3.154-2.337-4.769-5.32-4.769h-5.529v14.877h3.078v-5.244h2.337c3.116 0 5.434-1.577 5.434-4.864zm-3.097.076c0 1.387-1.254 1.919-2.47 1.919h-2.204v-3.857h2.185c1.273 0 2.489.494 2.489 1.938zm7.207 10.222c1.102 0 2.261-.38 3.021-1.463l.038.019v1.254h2.736V17.33c0-2.736-1.843-4.085-4.37-4.085-2.128 0-4.218 1.026-4.56 3.192l2.603.589c.228-.855.912-1.387 1.824-1.387 1.064 0 1.596.608 1.596 1.254 0 .418-.247.703-.798.703h-.988c-1.976 0-4.465.684-4.465 3.116v.076c0 1.881 1.596 3.021 3.363 3.021zm.855-2.166c-.627 0-1.235-.304-1.235-1.026 0-.798.874-1.159 1.482-1.159h1.767v.228c0 1.026-.703 1.957-2.014 1.957zm10.857 2.204c2.774 0 4.123-1.634 4.123-3.363 0-2.337-1.843-3.021-3.8-3.249-1.083-.114-1.577-.285-1.577-.893 0-.456.437-.836 1.159-.836.855 0 1.33.513 1.482 1.197l2.565-.646c-.209-1.14-1.368-2.831-4.009-2.831-2.147 0-4.009 1.406-4.009 3.249 0 2.299 1.748 2.945 3.667 3.211 1.064.152 1.615.342 1.615.988 0 .38-.342.874-1.216.874-.988 0-1.558-.646-1.691-1.387l-2.584.684c.171 1.083 1.292 3.002 4.275 3.002zm9.595 0c2.774 0 4.123-1.634 4.123-3.363 0-2.337-1.843-3.021-3.8-3.249-1.083-.114-1.577-.285-1.577-.893 0-.456.437-.836 1.159-.836.855 0 1.33.513 1.482 1.197l2.565-.646c-.209-1.14-1.368-2.831-4.009-2.831-2.147 0-4.009 1.406-4.009 3.249 0 2.299 1.748 2.945 3.667 3.211 1.064.152 1.615.342 1.615.988 0 .38-.342.874-1.216.874-.988 0-1.558-.646-1.691-1.387l-2.584.684c.171 1.083 1.292 3.002 4.275 3.002zm6.944-8.989a1.84 1.84 0 001.323-.568c.351-.363.548-.856.548-1.37 0-.514-.197-1.006-.548-1.37a1.84 1.84 0 00-1.323-.567c-1.027 0-1.864.867-1.864 1.937s.837 1.938 1.864 1.938zm0-3.514c.837 0 1.501.71 1.501 1.576 0 .868-.664 1.57-1.501 1.57-.832 0-1.488-.702-1.488-1.57 0-.867.656-1.575 1.488-1.575v-.001zm-.287 1.887h.315l.391.795h.481l-.447-.896a.63.63 0 00.276-.248.67.67 0 00.095-.366c0-.355-.21-.709-.748-.709h-.796v2.219h.433v-.795zm.671-.708c0 .13-.078.296-.343.296h-.328v-.593h.328c.287 0 .343.167.343.297z" fill="#383C43"/></svg>