<svg width="140" height="28" viewBox="0 0 140 28" fill="none" xmlns="http://www.w3.org/2000/svg"><path fill-rule="evenodd" clip-rule="evenodd" d="M3.33 28A17.66 17.66 0 010 17.643C0 7.9 7.835 0 17.5 0S35 7.899 35 17.643A17.66 17.66 0 0131.67 28l-8.406-13.76-.812 1.38.824 3.844L17.5 9.5l-3.573 6.082.832 3.881-3.027-5.216L3.33 28z" fill="#B1EB21"/><path fill-rule="evenodd" clip-rule="evenodd" d="M46.523 21.545H43.75V7.964h3.206l5.893 8.863V7.964h2.773v13.581h-2.86l-6.239-9.366v9.366zm11.853-8.065c.989-.937 2.202-1.405 3.606-1.405s2.6.468 3.57 1.387c.97.92 1.456 2.047 1.456 3.417 0 1.388-.486 2.55-1.474 3.487-.987.919-2.183 1.387-3.587 1.387-1.421 0-2.617-.45-3.588-1.37-.97-.92-1.456-2.064-1.456-3.452 0-1.37.486-2.532 1.474-3.451zm1.96 5.134c.432.433.987.659 1.628.659 1.3 0 2.27-.989 2.27-2.376 0-.677-.224-1.25-.658-1.683-.433-.45-.988-.676-1.629-.676s-1.178.225-1.612.676c-.433.434-.658 1.006-.658 1.683 0 .694.225 1.266.658 1.717zm10.659-4.909c.4-.85 1.387-1.527 2.617-1.527.156 0 .289.009.4.032v2.69a3.553 3.553 0 00-.504-.034c-1.75 0-2.513 1.095-2.513 2.76v3.92H68.29v-9.262h2.687v1.421h.017zm61.814-1.527c-1.231 0-2.219.677-2.617 1.527h-.018v-1.421h-2.686v9.262h2.704v-3.92c0-1.666.762-2.76 2.513-2.76.174 0 .34.01.503.034v-2.69a2.014 2.014 0 00-.399-.032zm-51.023 8.188h.035v1.18h2.617V7.963h-2.686v5.377h-.035c-.693-.815-1.612-1.231-2.773-1.231-1.265 0-2.322.485-3.172 1.474-.849.971-1.265 2.081-1.265 3.313 0 1.3.416 2.446 1.23 3.4.815.953 1.872 1.422 3.172 1.422s2.27-.451 2.877-1.353zm-4.54-3.47c0-1.37.987-2.341 2.287-2.341 1.3 0 2.288.971 2.288 2.342 0 .693-.225 1.266-.659 1.717-.433.433-.987.659-1.629.659-.641 0-1.196-.226-1.629-.66-.433-.45-.658-1.023-.658-1.716zM89.4 7.965v10.91h5.805v2.672H86.61V7.963h2.79zm6.828 10.997c0 .833.295 1.509.901 2.012.607.503 1.352.746 2.219.745 1.23 0 2.149-.45 2.773-1.335l.035.017v1.146h2.495v-5.742c0-2.428-1.577-3.73-4.021-3.73-2.027 0-3.449.73-4.246 2.204l2.062 1.231c.468-.832 1.145-1.249 2.063-1.249.971 0 1.491.503 1.491 1.145 0 .451-.243.676-.728.676h-.919c-1.04 0-1.907.157-2.755.556-.833.399-1.37 1.196-1.37 2.29v.034zm5.754-1.214v.208c0 1.023-.693 1.786-1.854 1.786-.694 0-1.178-.312-1.178-.936 0-.694.623-1.058 1.403-1.058h1.629zm3.572-5.464h2.981l2.306 5.29 2.062-5.29h2.791l-5.616 13.824h-2.895l2.271-5.55-3.9-8.274zm15.625 7.198c-1.161 0-2.132-.694-2.288-1.821h6.724c.018-.208.035-.538.035-.971 0-1.37-.433-2.498-1.283-3.348-.849-.85-1.958-1.284-3.327-1.284-1.335 0-2.496.469-3.466 1.423-.954.954-1.439 2.081-1.439 3.417 0 1.422.485 2.584 1.456 3.503.988.902 2.184 1.353 3.622 1.353 1.889 0 3.207-.693 3.987-2.098l-1.959-1.284c-.416.677-1.247 1.11-2.062 1.11zm-.208-5.22c1.23 0 1.906.797 1.975 1.612h-3.986c.052-.364.26-.728.624-1.075.364-.364.832-.538 1.387-.538zm17.058-2.774a1.802 1.802 0 01-1.802-1.807 1.805 1.805 0 013.083-1.277 1.805 1.805 0 01-1.281 3.084zm0-3.284c-.809 0-1.46.656-1.46 1.477 0 .822.651 1.478 1.46 1.478.804 0 1.467-.657 1.467-1.478s-.664-1.477-1.467-1.477zm-.269 1.766v.743h-.428V8.65h.816c.402 0 .738.21.738.65a.595.595 0 01-.397.592l.429.821h-.467l-.376-.743h-.315zm.691-.656c0-.204-.172-.257-.336-.257h-.355v.512h.361c.158 0 .33-.065.33-.255z" fill="#383C43"/></svg>