<svg width="142" height="32" viewBox="0 0 142 32" fill="none" xmlns="http://www.w3.org/2000/svg"><g clip-path="url(#clip0_245_19286)" fill-rule="evenodd" clip-rule="evenodd"><path d="M52.34 13.74L59.18 24h3.135V9.123h-3.04v9.71l-6.46-9.71H49.3V24h3.04V13.74zm17.353-.114c-3.078 0-5.567 2.3-5.567 5.32 0 3.06 2.45 5.282 5.529 5.282 3.059 0 5.548-2.28 5.548-5.339 0-3.02-2.451-5.263-5.51-5.263zm-.02 7.885c-1.386 0-2.507-1.064-2.507-2.603 0-1.52 1.102-2.584 2.489-2.584 1.387 0 2.508 1.064 2.508 2.584 0 1.54-1.102 2.603-2.49 2.603zm12.797-4.75v-2.907a3.675 3.675 0 00-.798-.114c-1.045 0-2.071.437-2.622 1.596h-.038v-1.482H76.2V24h2.907v-4.446c0-1.88.988-2.869 2.413-2.869.133 0 .55 0 .95.076zm8.56 5.947V24h2.87V8.534h-2.945v6.48h-.038c-1.045-1.236-2.451-1.35-3.04-1.35-2.907 0-4.864 2.68-4.864 5.244 0 2.736 1.88 5.282 4.826 5.282.684 0 2.204-.095 3.154-1.482h.038zm-2.507-6.365c1.387 0 2.508 1.045 2.508 2.565 0 1.54-1.121 2.603-2.508 2.603s-2.508-1.064-2.508-2.603c0-1.52 1.12-2.565 2.508-2.565zm6.299-7.22L100.199 24h3.553l5.396-14.877h-3.268l-3.876 11.305-3.857-11.305h-3.325zm21.005 9.633c3.116 0 5.434-1.577 5.434-4.864 0-3.154-2.337-4.769-5.32-4.769h-5.529V24h3.078v-5.244h2.337zm-.152-6.726c1.273 0 2.489.494 2.489 1.938 0 1.387-1.254 1.92-2.47 1.92h-2.204V12.03h2.185zm10.175 1.71L132.69 24h3.135V9.123h-3.04v9.71l-6.46-9.71h-3.515V24h3.04V13.74zM138 11a2 2 0 004 0 2 2 0 10-4 0zm.379 0c0-.91.721-1.636 1.617-1.636.889 0 1.625.727 1.625 1.636 0 .91-.736 1.636-1.625 1.636A1.622 1.622 0 01138.379 11zm1.319 1.142v-.822h.349l.416.822h.517l-.474-.91a.662.662 0 00.438-.654c0-.487-.372-.72-.816-.72h-.904v2.284h.474zm.393-1.833c.182 0 .372.058.372.284 0 .21-.19.283-.365.283h-.4v-.567h.393z" fill="#000"/><path d="M3.807 32A20.183 20.183 0 010 20.164C0 9.028 8.954 0 20 0s20 9.028 20 20.164A20.18 20.18 0 0136.193 32l-9.606-15.727-.927 1.58.94 4.39L20 10.858l-4.083 6.951.95 4.436-3.46-5.962L3.807 32z" fill="#3E5FFF"/></g><defs><clipPath id="clip0_245_19286"><path fill="#fff" d="M0 0h142v32H0z"/></clipPath></defs></svg>