<svg width="200" height="194" viewBox="0 0 200 194" fill="none" xmlns="http://www.w3.org/2000/svg"><path d="M18.559 125.821V68.179h46.935v57.642H18.56z" fill="#E01F26"/><path d="M31.602 90.176V77.6c1.772 0 2.495.5 2.495 2.164v8.247c0 1.667-.723 2.165-2.495 2.165zm9.495-10.995c0-4.663-2.175-7.165-7.324-7.165h-9.975v38.652h7.804V95.756h2.171c5.149 0 7.324-2.498 7.324-7.164v-9.41zm19.225 14.993h-7.399v9.745c0 1-.403 1.418-1.21 1.418-.806 0-1.203-.418-1.203-1.418V78.683c0-.836.404-1.337 1.204-1.337.799 0 1.21.497 1.21 1.337v8.822h7.4v-8.49c0-4.166-2.008-7.162-8.286-7.162-6.279 0-9.333 2.505-9.333 7.162v24.575c0 4.744 3.056 7.25 9.33 7.25s8.287-3.002 8.287-7.25v-9.416zm-1.291 27.845v-3.126c0-1.038.02-1.264.025-1.917-.067.653-.085 1.139-.21 1.917-.162 1.049-.5 3.126-.5 3.126h-1.063s-.347-2.078-.516-3.126a18.891 18.891 0 01-.229-1.917c.025.683.025.879.025 1.917v3.126h-1.152v-6.879h1.62c.215 1.274.415 2.652.578 3.566.068.413.095.589.182 1.147.08-.548.121-.778.184-1.139.164-.914.379-2.318.605-3.574h1.598v6.879H59.03zm-6.03-6.123c-.58 0-.62.669-.62 2.692 0 2.095.058 2.66.62 2.66.582 0 .63-.565.63-2.66 0-2.022-.048-2.692-.63-2.692zm0 6.25c-1.34 0-1.927-.639-1.927-3.558 0-2.823.587-3.555 1.927-3.555s1.937.761 1.937 3.555c0 2.858-.598 3.558-1.937 3.558zm-4.002 0c-1.513 0-1.964-.851-1.964-3.448 0-2.673.413-3.665 1.914-3.665 1.5 0 1.693.994 1.693 2.108-.002.185-.013.37-.035.553l-1.176.036a7.12 7.12 0 00.026-.534c0-.853-.098-1.296-.508-1.296-.503 0-.609.46-.609 2.747 0 2.159.06 2.605.646 2.605.483 0 .56-.545.56-1.36 0-.235-.01-.47-.032-.704l1.149.03c.024.194.036.389.036.584 0 1.568-.399 2.348-1.705 2.348l.005-.004zm-3.703-.127v-1.522h1.373v1.522h-1.373zm-1.057 0l-.287-.534c-.217.375-.428.656-1.033.656-1.29 0-1.878-.728-1.878-3.341 0-3.01.528-3.771 1.957-3.771 1.291 0 1.653.774 1.653 2.085 0 .118-.01.334-.021.425l-1.184.034c.016-.142.022-.285.018-.428 0-.793-.104-1.253-.486-1.253-.562 0-.628.47-.628 2.871 0 2.207.136 2.481.627 2.481.554 0 .686-.446.686-1.387 0-.126 0-.217-.01-.453h-.655v-.988h1.755v3.599l-.514.004zm-5.25-3.993a20.3 20.3 0 01-.104-1.059c-.018.23-.044.639-.094 1.047-.105.852-.218 1.796-.218 1.796h.645s-.13-.944-.225-1.784h-.004zm.614 3.993l-.225-1.265h-.96l-.212 1.265h-1.2l1.27-6.906h1.281l1.375 6.906h-1.33zm-4.14 0v-3.126c0-1.038.02-1.264.03-1.917-.072.653-.091 1.139-.21 1.917-.164 1.048-.51 3.126-.51 3.126h-1.065s-.345-2.078-.509-3.126a19.006 19.006 0 01-.228-1.917c.028.683.028.879.028 1.917v3.126h-1.15v-6.879h1.619c.215 1.274.413 2.652.576 3.566.072.413.098.589.184 1.147.076-.548.123-.778.183-1.139.162-.914.376-2.318.603-3.574h1.6v6.879h-1.15zm-5.837.127c-1.513 0-1.961-.851-1.961-3.448 0-2.673.413-3.665 1.909-3.665s1.698.994 1.698 2.108c-.002.185-.014.37-.035.553l-1.179.036c.018-.176.027-.413.027-.534 0-.853-.094-1.296-.516-1.296-.5 0-.604.46-.604 2.747 0 2.159.058 2.605.645 2.605.482 0 .557-.545.557-1.36a6.81 6.81 0 00-.031-.704l1.151.03c.022.194.033.389.033.584 0 1.568-.4 2.348-1.705 2.348l.01-.004zm-4.354-6.093h-.202v2.374h.28c.387 0 .623-.332.623-1.174 0-.877-.207-1.203-.7-1.203v.003zm.242 3.341h-.444v2.624h-1.263v-6.878h1.583c1.213 0 1.885.581 1.885 2.108 0 1.604-.628 2.148-1.761 2.148v-.002z" fill="#fff"/><path d="M66.541 125.821V68.179h99.901l15 28.822-15 28.82h-99.9z" fill="#E01F26"/><path d="M175.746 71.804h.308c.36 0 .645-.124.645-.425 0-.268-.188-.443-.599-.443a1.445 1.445 0 00-.359.036v.832h.005zm-.016 1.645h-.646v-2.902a5.424 5.424 0 011.077-.09c.529 0 .774.09.974.215a.824.824 0 01.273.636c0 .318-.239.567-.581.668v.036c.274.106.427.318.516.707.087.443.137.62.207.726h-.702c-.084-.105-.13-.371-.222-.707-.051-.32-.221-.461-.581-.461h-.308v1.168l-.007.004zm-1.728-1.522c0 1.292.925 2.319 2.195 2.319 1.232 0 2.138-1.027 2.138-2.3 0-1.274-.904-2.337-2.155-2.337s-2.171 1.044-2.171 2.318h-.007zm5.043 0a3.03 3.03 0 01-.865 2.067 2.829 2.829 0 01-2.015.852 2.832 2.832 0 01-2.015-.852 3.034 3.034 0 01-.864-2.067 2.887 2.887 0 012.888-2.902c1.606 0 2.871 1.292 2.871 2.902z" fill="#231F20"/><path d="M73.598 79.304h8.849v2.393h-6.164v4.01h4.976V88.1h-4.976v4.118h6.495v2.392h-9.18V79.304zm11.97 0h5.035c4.56 0 7.537 2.807 7.537 7.632 0 4.824-2.977 7.674-7.537 7.674h-5.035V79.304zm4.893 12.913c2.998 0 4.906-1.832 4.906-5.281 0-3.407-1.957-5.24-4.906-5.24h-2.208v10.522h2.208zm10.489-12.913h2.687V94.61h-2.687V79.304zm9.495 2.398h-4.847v-2.398h12.387v2.393h-4.853V94.61h-2.687V81.702zm15.989-2.651c4.351 0 7.641 3.428 7.641 7.803 0 4.506-3.29 8.02-7.641 8.02-4.35 0-7.641-3.512-7.641-8.02 0-4.375 3.289-7.803 7.641-7.803zm0 13.28c2.711 0 4.871-2.329 4.871-5.481 0-3.017-2.165-5.259-4.871-5.259-2.706 0-4.872 2.242-4.872 5.259 0 3.148 2.165 5.48 4.872 5.48zm10.367-13.027h4.768c1.602 0 2.331.134 2.977.432 1.478.69 2.414 2.155 2.414 4.181 0 1.833-.936 3.536-2.498 4.183v.043c.196.229.364.482.5.754l3.04 5.713h-2.998l-2.936-5.708h-2.582v5.714h-2.685V79.304zm5.101 7.179c1.436 0 2.331-.884 2.331-2.415 0-1.47-.604-2.371-2.711-2.371h-2.036v4.786h2.416zm8.93 4.209s1.604 1.616 3.685 1.616c1.124 0 2.144-.603 2.144-1.854 0-2.736-6.971-2.263-6.971-6.962 0-2.54 2.123-4.44 4.955-4.44 2.915 0 4.414 1.637 4.414 1.637l-1.162 2.264s-1.42-1.337-3.269-1.337c-1.25 0-2.227.754-2.227 1.833 0 2.715 6.953 2.048 6.953 6.94 0 2.437-1.79 4.485-4.872 4.485-3.29 0-5.101-2.091-5.101-2.091l1.451-2.091zm11.221-11.641h2.436l-1.54 4.72h-1.875l.979-4.72zm-81.876 21.093c3.602 0 5.455 2.092 5.455 2.092l-1.291 2.069s-1.686-1.617-4.04-1.617c-3.123 0-4.955 2.414-4.955 5.26 0 2.91 1.895 5.481 4.977 5.481 2.56 0 4.289-1.94 4.289-1.94l1.42 2.005s-2.04 2.479-5.81 2.479c-4.518 0-7.64-3.476-7.64-7.977-.004-4.446 3.243-7.852 7.595-7.852zm8.326.259h2.686v6.489h6.767v-6.489h2.685v15.306h-2.685v-6.424h-6.767v6.424h-2.686v-15.306zm22.506-.259c4.35 0 7.64 3.427 7.64 7.804 0 4.505-3.29 8.021-7.64 8.021-4.351 0-7.642-3.515-7.642-8.021 0-4.377 3.289-7.804 7.642-7.804zm0 13.28c2.711 0 4.871-2.328 4.871-5.481 0-3.019-2.165-5.261-4.871-5.261-2.706 0-4.873 2.242-4.873 5.261 0 3.153 2.165 5.481 4.873 5.481zm10.366-13.021h2.684v15.306h-2.685l.001-15.306zm13.012-.259c3.602 0 5.454 2.092 5.454 2.092l-1.291 2.069s-1.686-1.617-4.038-1.617c-3.123 0-4.955 2.414-4.955 5.26 0 2.91 1.894 5.481 4.976 5.481 2.561 0 4.289-1.94 4.289-1.94l1.42 2.005s-2.041 2.479-5.81 2.479c-4.519 0-7.64-3.476-7.64-7.977-.005-4.446 3.243-7.852 7.595-7.852zm8.326.259h8.845v2.393h-6.162v4.01h4.975v2.393h-4.975v4.118h6.495v2.394h-9.178v-15.308z" fill="#fff"/></svg>