<svg width="132" height="60" viewBox="0 0 132 60" xmlns="http://www.w3.org/2000/svg"><path d="M97.896 27.673l-2.085 3.584h-4.783l4.29-6.388L91.249 19h4.867l1.9 3.22L99.828 19h4.748l-4.002 5.817 4.426 6.44h-4.934l-2.17-3.584zm-20.16 8.406h-2.848V24.8h2.355c4.9 0 5.332 4.065 5.332 5.512 0 2.155-.617 5.768-4.839 5.768zM79.431 19H68.226v22.928h9.88c7.673 0 11.247-4.477 11.247-11.521 0-5.789-2.588-11.407-9.922-11.407zM47.604 42h19.044v-6.116H54.877v-2.325l11.77.01v-6.09h-11.77v-2.337l11.77-.008v-6.133H47.605V42zM27 25.128h5.843V41.93h7.325v-16.8h5.858V19H27v6.128z" fill="#8A8C98"/></svg>