<svg width="97" height="97" viewBox="0 0 97 97" fill="none" xmlns="http://www.w3.org/2000/svg"><g clip-path="url(#clip0_3431_50100)"><rect width="97" height="97" rx="6.326" fill="#fff"/><path d="M86.108 98.184l1.926-23.247a47.083 47.083 0 00-2.701-20.06l-2.319-5.7-11.301 3.283-2.845 4.512a116.992 116.992 0 00-13.652 30.676l-1.856 6.588a3.924 3.924 0 003.324 4.962l24.683 2.867a4.26 4.26 0 004.738-3.881" fill="#95D1F9"/><path d="M43.4 70.835l27.823 3.232 12.017-24.89-42.655 8.813L43.4 70.835z" fill="#95D1F9"/><path d="M46.847 41.159c.487-4.194 5.292-10.722 7.056-12.998a.639.639 0 00-.905-.893l-8.23 6.52a9.2 9.2 0 00-3.428 6.15l-.067.576 2.744.556 2.83.091v-.002z" fill="#FFBD6E"/><path d="M46.847 41.159L43.4 70.836c-6.858-.797-11.085-7.889-8.526-14.299l6.4-16.023 5.572.648v-.003zm30.536 39.689l5.631-31.446 24.02 51.835-4.375 3.464-25.276-23.853z" fill="#95D1F9"/><path d="M18.55 32.26l-4.48-.52a2.737 2.737 0 00-2.516 1.088l-2.693 3.62a2.74 2.74 0 00-.316 2.72l1.791 4.144a2.744 2.744 0 002.2 1.636l4.48.52c.972.114 1.93-.3 2.515-1.088l2.693-3.622a2.74 2.74 0 00.316-2.722l-1.791-4.14a2.743 2.743 0 00-2.199-1.636zM23.9 5.852l-4.48-.52a2.737 2.737 0 00-2.516 1.088l-2.693 3.619a2.74 2.74 0 00-.316 2.722l1.791 4.143a2.744 2.744 0 002.199 1.636l4.48.52c.973.113 1.932-.3 2.516-1.088l2.693-3.623a2.74 2.74 0 00.316-2.721l-1.79-4.14a2.744 2.744 0 00-2.2-1.636zm14.692 9.175l-4.48-.52a2.737 2.737 0 00-2.516 1.088l-2.693 3.62a2.74 2.74 0 00-.316 2.721l1.791 4.143a2.744 2.744 0 002.199 1.636l4.48.52c.973.114 1.932-.3 2.516-1.088l2.693-3.622a2.74 2.74 0 00.316-2.722l-1.791-4.14a2.744 2.744 0 00-2.199-1.636z" fill="#FF7059"/><path d="M63.205 67.018a115.814 115.814 0 00-2.71 5.803l-3.888-.451 5.92-5.844c.34-.337.894.061.678.492zm23.603 22.726l-3.94-3.721c-.475-.447-1.22.085-.95.677l4.35 9.552.54-6.508z" fill="#6AAED8"/><g clip-path="url(#clip1_3431_50100)"><path d="M83.085 49.665l-3.066-2.664-3.8-.86-3.131 7.585c-.254.616.408 1.207.992.886l9.005-4.947z" fill="#FFBD6E"/><path d="M83.085 49.665l5.291-12.192a8.938 8.938 0 00-16.397-7.116l-2.046 4.712c-2.094 4.826.413 10.408 5.41 12.05" fill="#FFBD6E"/><path d="M71.64 31.138l-1.613 1.239a.88.88 0 00-.306.949l.396 1.325 1.022-1.56.502-1.953-.003-.001h.002z" fill="#FFBD6E"/><path d="M88.714 36.565c1.34-4.302-.75-9.014-4.978-10.849a8.937 8.937 0 00-9.367 1.404c2.267 1.364 4.39.002 4.51-.078-3.888 3.743 1.953 8.67 3.263 9.406.026.346.045.705.065 1.071.144 2.675.309 5.717 3.132 6.947l3.036-6.993c.128-.296.241-.599.34-.908z" fill="#824F36"/><path d="M80.622 37.12a1.914 1.914 0 113.513 1.524 1.914 1.914 0 11-3.513-1.524z" fill="#FFBD6E"/><path d="M72.623 29.43a.456.456 0 01-.172-.366.447.447 0 01.458-.438c.044 0 1.09.03 2.032.846a.449.449 0 11-.587.68 2.584 2.584 0 00-1.466-.627.444.444 0 01-.264-.097" fill="#824F36"/><path d="M72.093 31.966c-.329.72-.526 1.334-.316 1.43.21.097.545-.454.875-1.173.329-.72.526-1.334.316-1.43-.21-.097-.545.454-.875 1.173z" fill="#000"/><path fill-rule="evenodd" clip-rule="evenodd" d="M70.842 39.345a.286.286 0 01-.122-.56l.112-.018c.066-.008.16-.017.285-.02.25-.008.618.004 1.113.078.495.073.85.17 1.087.249.118.04.206.076.267.103.03.013.101.05.101.05a.287.287 0 01-.28.5 1.922 1.922 0 00-.271-.11 5.769 5.769 0 00-.989-.225 5.77 5.77 0 00-1.01-.072 1.965 1.965 0 00-.292.025z" fill="#000"/></g></g><defs><clipPath id="clip0_3431_50100"><rect width="97" height="97" rx="6.326" fill="#fff"/></clipPath><clipPath id="clip1_3431_50100"><path fill="#fff" transform="rotate(8.462 -105.66 436.68)" d="M0 0h30.232v33.359H0z"/></clipPath></defs></svg>