<svg width="129" height="52" viewBox="0 0 129 52" fill="none" xmlns="http://www.w3.org/2000/svg">
<g clip-path="url(#clip0_13_135)">
<path d="M94.7812 16.25H94C93.6685 16.25 93.3505 16.3817 93.1161 16.6161C92.8817 16.8505 92.75 17.1685 92.75 17.5V18.75C92.75 19.0815 92.8817 19.3995 93.1161 19.6339C93.3505 19.8683 93.6685 20 94 20H95.2453C95.2344 23.3713 94.8163 26.729 94 30H104C103.184 26.729 102.766 23.3713 102.755 20H104C104.332 20 104.649 19.8683 104.884 19.6339C105.118 19.3995 105.25 19.0815 105.25 18.75V17.5C105.25 17.1685 105.118 16.8505 104.884 16.6161C104.649 16.3817 104.332 16.25 104 16.25H103.219L105.866 9.18906C105.937 8.99982 105.961 8.79619 105.936 8.59561C105.912 8.39504 105.838 8.20351 105.723 8.03745C105.608 7.87138 105.454 7.73573 105.275 7.64213C105.096 7.54852 104.897 7.49975 104.695 7.5H100.25V5H102.125C102.291 5 102.45 4.93415 102.567 4.81694C102.684 4.69973 102.75 4.54076 102.75 4.375V3.125C102.75 2.95924 102.684 2.80027 102.567 2.68306C102.45 2.56585 102.291 2.5 102.125 2.5H100.25V0.625C100.25 0.45924 100.184 0.300269 100.067 0.183058C99.9497 0.065848 99.7908 0 99.625 0L98.375 0C98.2092 0 98.0503 0.065848 97.9331 0.183058C97.8158 0.300269 97.75 0.45924 97.75 0.625V2.5H95.875C95.7092 2.5 95.5503 2.56585 95.4331 2.68306C95.3158 2.80027 95.25 2.95924 95.25 3.125V4.375C95.25 4.54076 95.3158 4.69973 95.4331 4.81694C95.5503 4.93415 95.7092 5 95.875 5H97.75V7.5H93.3039C93.1018 7.49975 92.9026 7.54852 92.7235 7.64213C92.5443 7.73573 92.3906 7.87138 92.2754 8.03745C92.1601 8.20351 92.0869 8.39504 92.062 8.59561C92.037 8.79619 92.061 8.99982 92.132 9.18906L94.7812 16.25ZM108.309 35.9047L106.5 35V33.75C106.5 33.4185 106.368 33.1005 106.134 32.8661C105.899 32.6317 105.582 32.5 105.25 32.5H92.75C92.4185 32.5 92.1005 32.6317 91.8661 32.8661C91.6317 33.1005 91.5 33.4185 91.5 33.75V35L89.6914 35.9047C89.4837 36.0084 89.309 36.168 89.1869 36.3654C89.0648 36.5629 89.0001 36.7905 89 37.0227V38.75C89 39.0815 89.1317 39.3995 89.3661 39.6339C89.6005 39.8683 89.9185 40 90.25 40H107.75C108.082 40 108.399 39.8683 108.634 39.6339C108.868 39.3995 109 39.0815 109 38.75V37.0227C109 36.7906 108.935 36.5631 108.813 36.3656C108.691 36.1681 108.517 36.0085 108.309 35.9047V35.9047ZM115.557 23.5781L115.3 30H125.2L124.943 23.5773L126.865 21.9531C127.143 21.7182 127.366 21.4255 127.518 21.0954C127.671 20.7654 127.75 20.4059 127.75 20.0422V15.4688C127.75 15.3444 127.701 15.2252 127.613 15.1373C127.525 15.0494 127.406 15 127.281 15H125.22C125.096 15 124.977 15.0494 124.889 15.1373C124.801 15.2252 124.752 15.3444 124.752 15.4688V17.5H122.821V15.4688C122.821 15.3444 122.772 15.2252 122.684 15.1373C122.596 15.0494 122.477 15 122.352 15H118.148C118.024 15 117.905 15.0494 117.817 15.1373C117.729 15.2252 117.68 15.3444 117.68 15.4688V17.5H115.749V15.4688C115.749 15.3444 115.7 15.2252 115.612 15.1373C115.524 15.0494 115.405 15 115.28 15H113.219C113.094 15 112.975 15.0494 112.887 15.1373C112.799 15.2252 112.75 15.3444 112.75 15.4688V20.0469C112.751 20.41 112.83 20.7686 112.984 21.0978C113.137 21.427 113.36 21.7189 113.637 21.9531L115.557 23.5781ZM119 23.75C119 23.4185 119.132 23.1005 119.366 22.8661C119.601 22.6317 119.918 22.5 120.25 22.5C120.582 22.5 120.899 22.6317 121.134 22.8661C121.368 23.1005 121.5 23.4185 121.5 23.75V26.25H119V23.75ZM128.309 35.9047L126.5 35V33.75C126.5 33.4185 126.368 33.1005 126.134 32.8661C125.899 32.6317 125.582 32.5 125.25 32.5H115.25C114.918 32.5 114.601 32.6317 114.366 32.8661C114.132 33.1005 114 33.4185 114 33.75V35L112.191 35.9047C111.984 36.0084 111.809 36.168 111.687 36.3654C111.565 36.5629 111.5 36.7905 111.5 37.0227V38.75C111.5 39.0815 111.632 39.3995 111.866 39.6339C112.101 39.8683 112.418 40 112.75 40H127.75C128.082 40 128.399 39.8683 128.634 39.6339C128.868 39.3995 129 39.0815 129 38.75V37.0227C129 36.7906 128.935 36.5631 128.813 36.3656C128.691 36.1681 128.517 36.0085 128.309 35.9047V35.9047Z" fill="#E7E7E7"/>
</g>
<path d="M7.84 40.4C5.73333 40.4 4.12 39.8 3 38.6C1.90667 37.4 1.36 35.7067 1.36 33.52V18.48C1.36 16.2933 1.90667 14.6 3 13.4C4.12 12.2 5.73333 11.6 7.84 11.6C9.94667 11.6 11.5467 12.2 12.64 13.4C13.76 14.6 14.32 16.2933 14.32 18.48V21.44H10.16V18.2C10.16 16.4667 9.42667 15.6 7.96 15.6C6.49333 15.6 5.76 16.4667 5.76 18.2V33.84C5.76 35.5467 6.49333 36.4 7.96 36.4C9.42667 36.4 10.16 35.5467 10.16 33.84V29.56H14.32V33.52C14.32 35.7067 13.76 37.4 12.64 38.6C11.5467 39.8 9.94667 40.4 7.84 40.4ZM16.9525 12H21.3525V23.4H26.0725V12H30.4725V40H26.0725V27.4H21.3525V40H16.9525V12ZM33.7494 12H45.7494V16H38.1494V23.4H44.1894V27.4H38.1494V36H45.7494V40H33.7494V12ZM54.0788 40.4C51.9454 40.4 50.3321 39.8 49.2388 38.6C48.1454 37.3733 47.5988 35.6267 47.5988 33.36V31.76H51.7588V33.68C51.7588 35.4933 52.5188 36.4 54.0388 36.4C54.7854 36.4 55.3454 36.1867 55.7188 35.76C56.1188 35.3067 56.3188 34.5867 56.3188 33.6C56.3188 32.4267 56.0521 31.4 55.5188 30.52C54.9854 29.6133 53.9988 28.5333 52.5588 27.28C50.7454 25.68 49.4788 24.24 48.7588 22.96C48.0388 21.6533 47.6788 20.1867 47.6788 18.56C47.6788 16.3467 48.2388 14.64 49.3587 13.44C50.4788 12.2133 52.1054 11.6 54.2388 11.6C56.3454 11.6 57.9321 12.2133 58.9988 13.44C60.0921 14.64 60.6388 16.3733 60.6388 18.64V19.8H56.4788V18.36C56.4788 17.4 56.2921 16.7067 55.9188 16.28C55.5454 15.8267 54.9988 15.6 54.2788 15.6C52.8121 15.6 52.0788 16.4933 52.0788 18.28C52.0788 19.2933 52.3454 20.24 52.8788 21.12C53.4388 22 54.4388 23.0667 55.8788 24.32C57.7188 25.92 58.9854 27.3733 59.6788 28.68C60.3721 29.9867 60.7188 31.52 60.7188 33.28C60.7188 35.5733 60.1454 37.3333 58.9988 38.56C57.8788 39.7867 56.2388 40.4 54.0788 40.4ZM68.9616 40.4C66.8282 40.4 65.2149 39.8 64.1216 38.6C63.0282 37.3733 62.4816 35.6267 62.4816 33.36V31.76H66.6416V33.68C66.6416 35.4933 67.4016 36.4 68.9216 36.4C69.6682 36.4 70.2282 36.1867 70.6016 35.76C71.0016 35.3067 71.2016 34.5867 71.2016 33.6C71.2016 32.4267 70.9349 31.4 70.4016 30.52C69.8682 29.6133 68.8816 28.5333 67.4416 27.28C65.6282 25.68 64.3616 24.24 63.6416 22.96C62.9216 21.6533 62.5616 20.1867 62.5616 18.56C62.5616 16.3467 63.1216 14.64 64.2416 13.44C65.3616 12.2133 66.9882 11.6 69.1216 11.6C71.2282 11.6 72.8149 12.2133 73.8816 13.44C74.9749 14.64 75.5216 16.3733 75.5216 18.64V19.8H71.3616V18.36C71.3616 17.4 71.1749 16.7067 70.8016 16.28C70.4282 15.8267 69.8816 15.6 69.1616 15.6C67.6949 15.6 66.9616 16.4933 66.9616 18.28C66.9616 19.2933 67.2282 20.24 67.7616 21.12C68.3216 22 69.3216 23.0667 70.7616 24.32C72.6016 25.92 73.8682 27.3733 74.5616 28.68C75.2549 29.9867 75.6016 31.52 75.6016 33.28C75.6016 35.5733 75.0282 37.3333 73.8816 38.56C72.7616 39.7867 71.1216 40.4 68.9616 40.4ZM78.1244 35.76H82.3644V40H78.1244V35.76Z" fill="#E7E7E7"/>
<defs>
<clipPath id="clip0_13_135">
<rect width="40" height="40" fill="white" transform="translate(89)"/>
</clipPath>
</defs>
</svg>
