<svg width="30" height="30" viewBox="0 0 30 30" fill="none" xmlns="http://www.w3.org/2000/svg">
<circle cx="15" cy="16" r="3" stroke="#1C274C" stroke-width="1.5"/>
<path opacity="0.5" d="M12.7778 24H17.2222C20.3433 24 21.9038 24 23.0248 23.2646C23.51 22.9462 23.9267 22.5371 24.251 22.0607C25 20.9601 25 19.4279 25 16.3636C25 13.2994 25 11.7672 24.251 10.6666C23.9267 10.1901 23.51 9.78104 23.0248 9.46268C22.3044 8.99013 21.4027 8.82123 20.022 8.76086C19.3631 8.76086 18.7959 8.27068 18.6667 7.63636C18.4728 6.68489 17.6219 6 16.6337 6H13.3663C12.3781 6 11.5272 6.68489 11.3333 7.63636C11.2041 8.27068 10.6369 8.76086 9.978 8.76086C8.59733 8.82123 7.69555 8.99013 6.97524 9.46268C6.48995 9.78104 6.07328 10.1901 5.74902 10.6666C5 11.7672 5 13.2994 5 16.3636C5 19.4279 5 20.9601 5.74902 22.0607C6.07328 22.5371 6.48995 22.9462 6.97524 23.2646C8.09624 24 9.65675 24 12.7778 24Z" stroke="#1C274C" stroke-width="1.5"/>
<path d="M22 13H21" stroke="#1C274C" stroke-width="1.5" stroke-linecap="round"/>
</svg>
