<svg width="30" height="30" viewBox="0 0 30 30" fill="none" xmlns="http://www.w3.org/2000/svg">
<path d="M5 15C5 10.286 5 7.92893 6.46447 6.46447C7.92893 5 10.286 5 15 5C19.714 5 22.0711 5 23.5355 6.46447C25 7.92893 25 10.286 25 15C25 19.714 25 22.0711 23.5355 23.5355C22.0711 25 19.714 25 15 25C10.286 25 7.92893 25 6.46447 23.5355C5 22.0711 5 19.714 5 15Z" stroke="#1C274C" stroke-width="1.5"/>
<circle opacity="0.5" cx="19" cy="11" r="2" stroke="#1C274C" stroke-width="1.5"/>
<path opacity="0.5" d="M5 15.5001L6.75159 13.9675C7.66286 13.1702 9.03628 13.2159 9.89249 14.0721L14.1822 18.3618C14.8694 19.0491 15.9512 19.1428 16.7464 18.5839L17.0446 18.3744C18.1888 17.5702 19.7369 17.6634 20.7765 18.599L24 21.5001" stroke="#1C274C" stroke-width="1.5" stroke-linecap="round"/>
</svg>
