<svg width="30" height="30" viewBox="0 0 30 30" fill="none" xmlns="http://www.w3.org/2000/svg">
<path d="M22.6471 18.5357H7.35294M22.6471 18.5357V11C22.6471 9.11438 22.6471 8.17157 22.0613 7.58579C21.4755 7 20.5327 7 18.6471 7H11.3529C9.46732 7 8.52451 7 7.93873 7.58579C7.35294 8.17157 7.35294 9.11438 7.35294 11V18.5357M22.6471 18.5357L24.3911 20.3358C24.4356 20.3818 24.4579 20.4048 24.4787 20.4276C24.7998 20.7802 24.9843 21.2358 24.999 21.7124C25 21.7433 25 21.7753 25 21.8393C25 21.9885 25 22.0631 24.996 22.1261C24.9325 23.1314 24.1314 23.9325 23.1261 23.996C23.0631 24 22.9885 24 22.8393 24H7.16068C7.01148 24 6.93688 24 6.87388 23.996C5.86865 23.9325 5.06749 23.1314 5.00398 22.1261C5 22.0631 5 21.9885 5 21.8393C5 21.7753 5 21.7433 5.00096 21.7124C5.01569 21.2358 5.20022 20.7802 5.52127 20.4276C5.54208 20.4048 5.56438 20.3818 5.60888 20.3358L7.35294 18.5357" stroke="#1C274C" stroke-width="1.5" stroke-linecap="round"/>
<path opacity="0.5" d="M12.5 21.5H17.5" stroke="#1C274C" stroke-width="1.5" stroke-linecap="round"/>
<path opacity="0.5" d="M15.75 9.75C15.75 10.1642 15.4142 10.5 15 10.5C14.5858 10.5 14.25 10.1642 14.25 9.75C14.25 9.33579 14.5858 9 15 9C15.4142 9 15.75 9.33579 15.75 9.75Z" fill="#1C274C"/>
</svg>
