<svg width="30" height="30" viewBox="0 0 30 30" fill="none" xmlns="http://www.w3.org/2000/svg">
<path fill-rule="evenodd" clip-rule="evenodd" d="M20.2059 4.85619C19.1431 4.4375 18.116 4.72093 17.389 5.36753C16.6798 5.99824 16.25 6.96989 16.25 8.00003V12C16.25 12.9665 17.0335 13.75 18 13.75H22C23.0301 13.75 24.0018 13.3202 24.6325 12.611C25.2791 11.884 25.5625 10.8569 25.1438 9.79412C24.2558 7.53992 22.4601 5.74423 20.2059 4.85619ZM17.75 12V8.00003C17.75 7.37331 18.0149 6.8183 18.3858 6.48838C18.7389 6.17435 19.1774 6.06319 19.6561 6.2518C21.5233 6.98737 23.0127 8.47673 23.7482 10.3439C23.9368 10.8227 23.8257 11.2611 23.5117 11.6142C23.1817 11.9851 22.6267 12.25 22 12.25H18C17.8619 12.25 17.75 12.1381 17.75 12Z" fill="#1C274C"/>
<path fill-rule="evenodd" clip-rule="evenodd" d="M13.9953 5.86997C13.3847 5.47444 12.7942 5.36057 12.1457 5.47365C11.595 5.56967 11.0055 5.83384 10.3782 6.11499L10.3106 6.14528C9.78871 6.37898 9.28506 6.65696 8.80541 6.97745C7.11981 8.10374 5.80604 9.70457 5.03024 11.5775C4.25444 13.4505 4.05146 15.5114 4.44696 17.4997C4.84245 19.488 5.81867 21.3144 7.25216 22.7479C8.68565 24.1813 10.512 25.1576 12.5003 25.5531C14.4886 25.9486 16.5496 25.7456 18.4225 24.9698C20.2955 24.194 21.8963 22.8802 23.0226 21.1946C23.3431 20.715 23.621 20.2113 23.8547 19.6895L23.885 19.6218C24.1662 18.9945 24.4303 18.405 24.5264 17.8543C24.6394 17.2059 24.5256 16.6153 24.1301 16.0048C23.7036 15.3466 23.1199 15.025 22.406 14.8792C21.7721 14.7498 20.98 14.7499 20.0722 14.75L18.5 14.75C17.536 14.75 16.8884 14.7484 16.4054 14.6835C15.9439 14.6214 15.7464 14.5142 15.6161 14.3839C15.4858 14.2536 15.3786 14.0561 15.3165 13.5946C15.2516 13.1116 15.25 12.464 15.25 11.5L15.25 9.92784C15.2501 9.02003 15.2502 8.22795 15.1208 7.59406C14.9751 6.88016 14.6534 6.29637 13.9953 5.86997ZM10.9236 7.51427C11.6428 7.19218 12.0597 7.01127 12.4034 6.95135C12.669 6.90504 12.8776 6.93318 13.1797 7.12886C13.434 7.29366 13.5687 7.49038 13.6511 7.89407C13.7464 8.36104 13.75 8.99846 13.75 10L13.75 11.552C13.75 12.4505 13.7499 13.1997 13.8299 13.7945C13.9143 14.4223 14.1 14.9891 14.5555 15.4446C15.0109 15.9 15.5777 16.0857 16.2055 16.1701C16.8003 16.2501 17.5495 16.25 18.448 16.25L20 16.25C21.0016 16.25 21.639 16.2536 22.1059 16.3489C22.5096 16.4313 22.7064 16.566 22.8712 16.8204C23.0668 17.1224 23.095 17.3311 23.0487 17.5967C22.9887 17.9403 22.8078 18.3572 22.4858 19.0764C22.2863 19.5218 22.049 19.9518 21.7754 20.3613C20.8139 21.8002 19.4473 22.9217 17.8485 23.584C16.2496 24.2462 14.4903 24.4195 12.793 24.0819C11.0956 23.7443 9.53653 22.9109 8.31282 21.6872C7.08911 20.4635 6.25575 18.9044 5.91813 17.2071C5.58051 15.5097 5.75379 13.7504 6.41606 12.1515C7.07833 10.5527 8.19983 9.18612 9.63876 8.22466C10.0482 7.95106 10.4782 7.71376 10.9236 7.51427Z" fill="#1C274C"/>
</svg>
