<svg width="30" height="30" viewBox="0 0 30 30" fill="none" xmlns="http://www.w3.org/2000/svg">
<path d="M10.5799 18.0077L11.1094 17.4766L10.5799 18.0077ZM10.5799 12.5308L10.0504 11.9997H10.0504L10.5799 12.5308ZM17.4467 19.3769L16.9171 18.8458L17.4467 19.3769ZM11.9533 19.3769L11.4237 19.9081L11.9533 19.3769ZM14.7 21.3133V22.0633V21.3133ZM23.2935 13.5476L23.8231 14.0788L23.2935 13.5476ZM16.4268 6.70146L16.9563 7.23259L16.4268 6.70146ZM15.2189 21.2188L15.4781 21.9226L15.2189 21.2188ZM8.74966 14.7075L9.44551 14.9873L8.74966 14.7075ZM22.764 13.0165L16.9171 18.8458L17.9762 19.9081L23.8231 14.0788L22.764 13.0165ZM12.4828 18.8458L11.1094 17.4766L10.0504 18.5388L11.4237 19.9081L12.4828 18.8458ZM11.1094 13.0619L16.9563 7.23259L15.8972 6.17034L10.0504 11.9997L11.1094 13.0619ZM20.5468 5.75H21.1157V4.25H20.5468V5.75ZM24.2501 8.87277V9.43993H25.7501V8.87277H24.2501ZM21.1157 5.75C22.0524 5.75 22.6797 5.75158 23.1472 5.81425C23.5933 5.87405 23.7799 5.97688 23.9017 6.09828L24.9608 5.03603C24.5137 4.59027 23.9581 4.40953 23.3465 4.32754C22.7562 4.24842 22.0101 4.25 21.1157 4.25V5.75ZM25.7501 8.87277C25.7501 7.98122 25.7517 7.23688 25.6723 6.6478C25.5899 6.03692 25.4082 5.48209 24.9608 5.03603L23.9017 6.09828C24.0232 6.21937 24.1259 6.40453 24.1857 6.84826C24.2485 7.3138 24.2501 7.93869 24.2501 8.87277H25.7501ZM11.1094 17.4766C10.447 16.8161 10.0048 16.373 9.71885 15.9994C9.44611 15.643 9.3877 15.4397 9.3877 15.2692H7.8877C7.8877 15.9009 8.15298 16.4214 8.52764 16.911C8.88913 17.3833 9.418 17.9084 10.0504 18.5388L11.1094 17.4766ZM11.4237 19.9081C12.0561 20.5386 12.5827 21.0658 13.0564 21.4262C13.5475 21.7997 14.0685 22.0633 14.7 22.0633V20.5633C14.5269 20.5633 14.322 20.5042 13.9646 20.2323C13.5897 19.9472 13.1452 19.5062 12.4828 18.8458L11.4237 19.9081ZM23.8231 14.0788C24.6216 13.2826 25.1785 12.7461 25.4709 12.0423L24.0857 11.4668C23.9346 11.8306 23.6495 12.1337 22.764 13.0165L23.8231 14.0788ZM24.2501 9.43993C24.2501 10.6885 24.2368 11.1033 24.0857 11.4668L25.4709 12.0423C25.7634 11.3383 25.7501 10.5658 25.7501 9.43993H24.2501ZM16.9563 7.23259C17.8415 6.35 18.1458 6.06532 18.5115 5.91431L17.9389 4.52788C17.2338 4.81908 16.6961 5.3739 15.8972 6.17034L16.9563 7.23259ZM20.5468 4.25C19.4171 4.25 18.6438 4.23679 17.9389 4.52788L18.5115 5.91431C18.8774 5.76321 19.2949 5.75 20.5468 5.75V4.25ZM16.9171 18.8458C16.4058 19.3556 16.0211 19.7386 15.6905 20.0241C15.3587 20.3106 15.1351 20.4504 14.9597 20.515L15.4781 21.9226C15.906 21.765 16.2919 21.4867 16.6709 21.1593C17.0513 20.8308 17.4788 20.404 17.9762 19.9081L16.9171 18.8458ZM14.9597 20.515C14.8673 20.5491 14.7848 20.5633 14.7 20.5633V22.0633C14.9707 22.0633 15.2283 22.0146 15.4781 21.9226L14.9597 20.515ZM10.0504 11.9997C9.5649 12.4837 9.14575 12.901 8.82033 13.2724C8.49625 13.6423 8.21908 14.0167 8.05382 14.4277L9.44551 14.9873C9.51649 14.8108 9.66249 14.5874 9.94849 14.261C10.2332 13.9361 10.611 13.5588 11.1094 13.0619L10.0504 11.9997ZM8.05382 14.4277C7.94592 14.696 7.8877 14.9743 7.8877 15.2692H9.3877C9.3877 15.1791 9.40412 15.0902 9.44551 14.9873L8.05382 14.4277Z" fill="#1C274C"/>
<path opacity="0.5" d="M8.57332 14.5317L9.10365 14.0013L9.10286 14.0005L8.57332 14.5317ZM12.9196 10.4224C13.2679 10.6465 13.732 10.5459 13.9562 10.1976C14.1803 9.84931 14.0797 9.38522 13.7314 9.16104L12.9196 10.4224ZM12.6963 9.38673L13.1022 8.75607V8.75607L12.6963 9.38673ZM10.1266 8.06822L10.2363 7.32628L10.1266 8.06822ZM5.22514 11.0237L5.75467 11.5548H5.75467L5.22514 11.0237ZM8.33941 8.29662L8.62684 8.98936H8.62684L8.33941 8.29662ZM5.86314 12.4264L5.58685 13.1237H5.58686L5.86314 12.4264ZM5.98636 12.4758L6.27206 11.7823V11.7823L5.98636 12.4758ZM7.61259 13.5738L8.14212 13.0427L7.61259 13.5738ZM7.51839 13.4805L6.99611 14.0188L7.51839 13.4805ZM5.48449 12.2764L5.76078 11.5792L5.76078 11.5792L5.48449 12.2764ZM15.5 21.5004L14.9697 22.0307C14.9813 22.0423 14.9932 22.0535 15.0056 22.0644L15.5 21.5004ZM20.8238 16.2323C20.5987 15.8846 20.1344 15.7852 19.7867 16.0104C19.439 16.2355 19.3396 16.6999 19.5647 17.0475L20.8238 16.2323ZM20.6005 17.2672L19.9709 17.6749L20.6005 17.2672ZM21.923 19.8292L22.6648 19.7189L21.923 19.8292ZM18.9586 24.716L19.4882 25.2471L18.9586 24.716ZM21.6939 21.611L22.386 21.8999L21.6939 21.611ZM17.749 24.5751L18.4457 24.2974L17.749 24.5751ZM17.2748 23.4832L17.9324 23.1225L17.2748 23.4832ZM16.0229 21.9589L16.5524 21.4277L16.5354 21.4108L16.5173 21.3949L16.0229 21.9589ZM16.8408 22.8253L17.4311 22.3627L16.8408 22.8253ZM18.8746 24.7997L18.3451 24.2686L18.8746 24.7997ZM13.7314 9.16104L13.1022 8.75607L12.2904 10.0174L12.9196 10.4224L13.7314 9.16104ZM13.1022 8.75607C12.4808 8.35611 11.9792 8.03268 11.5475 7.80007C11.1064 7.56238 10.6932 7.3938 10.2363 7.32628L10.017 8.81016C10.2364 8.84258 10.4769 8.92707 10.836 9.12056C11.2045 9.31913 11.6496 9.60498 12.2904 10.0174L13.1022 8.75607ZM5.75467 11.5548C6.31773 10.9934 6.92167 10.3915 7.46441 9.8964C7.73558 9.64902 7.98252 9.43658 8.19434 9.27332C8.41778 9.1011 8.55951 9.01729 8.62684 8.98936L8.05198 7.60388C7.79474 7.71062 7.52494 7.89541 7.27863 8.08526C7.02071 8.28406 6.73971 8.52712 6.45348 8.78823C5.88143 9.31009 5.2528 9.93703 4.69562 10.4925L5.75467 11.5548ZM10.2363 7.32628C9.50162 7.2177 8.7462 7.31584 8.05198 7.60388L8.62684 8.98936C9.07751 8.80237 9.55885 8.74245 10.017 8.81016L10.2363 7.32628ZM5.20821 12.9737L5.58685 13.1237L6.13942 11.7292L5.76078 11.5792L5.20821 12.9737ZM7.08306 14.1049L8.04379 15.0628L9.10286 14.0005L8.14212 13.0427L7.08306 14.1049ZM5.58686 13.1237C5.65049 13.1489 5.67596 13.159 5.70065 13.1692L6.27206 11.7823C6.23583 11.7674 6.19947 11.753 6.13942 11.7292L5.58686 13.1237ZM8.14212 13.0427C8.09644 12.9971 8.06877 12.9695 8.04066 12.9422L6.99611 14.0188C7.01525 14.0373 7.03464 14.0567 7.08306 14.1049L8.14212 13.0427ZM5.70065 13.1692C6.18281 13.3679 6.62245 13.6562 6.99611 14.0188L8.04066 12.9422C7.53026 12.447 6.93001 12.0534 6.27206 11.7823L5.70065 13.1692ZM4.69562 10.4925C3.92183 11.264 4.19466 12.5721 5.20821 12.9737L5.76078 11.5792C5.75633 11.5774 5.75452 11.5761 5.75424 11.5759C5.75386 11.5756 5.75375 11.5755 5.75362 11.5753C5.75315 11.5747 5.75145 11.5722 5.75051 11.5677C5.74957 11.5632 5.75019 11.5604 5.75028 11.5601C5.75029 11.56 5.75026 11.5601 5.75038 11.5599C5.75044 11.5598 5.75143 11.558 5.75467 11.5548L4.69562 10.4925ZM19.5647 17.0475L19.9709 17.6749L21.23 16.8596L20.8238 16.2323L19.5647 17.0475ZM18.4291 24.1848L18.3451 24.2686L19.4041 25.3309L19.4882 25.2471L18.4291 24.1848ZM19.9709 17.6749C20.3846 18.3138 20.6713 18.7574 20.8703 19.1247C21.0643 19.4825 21.1488 19.7217 21.1811 19.9395L22.6648 19.7189C22.5969 19.2623 22.4275 18.8498 22.189 18.4098C21.9557 17.9793 21.6312 17.4791 21.23 16.8596L19.9709 17.6749ZM19.4882 25.2471C20.0453 24.6916 20.6742 24.0648 21.1976 23.4945C21.4595 23.2091 21.7033 22.9289 21.9028 22.6717C22.0931 22.4262 22.2787 22.1569 22.386 21.8999L21.0018 21.3221C20.974 21.3887 20.8901 21.5298 20.7174 21.7526C20.5536 21.9637 20.3406 22.2099 20.0925 22.4802C19.5959 23.0213 18.9922 23.6235 18.4291 24.1848L19.4882 25.2471ZM21.1811 19.9395C21.2488 20.3949 21.189 20.8736 21.0018 21.3221L22.386 21.8999C22.6753 21.207 22.7739 20.4526 22.6648 19.7189L21.1811 19.9395ZM16.5173 21.3949L15.9944 20.9365L15.0056 22.0644L15.5284 22.5228L16.5173 21.3949ZM18.4457 24.2974C18.231 23.7588 18.102 23.4317 17.9324 23.1225L16.6173 23.8439C16.7326 24.0541 16.8247 24.2818 17.0523 24.8528L18.4457 24.2974ZM15.4933 22.49C15.9291 22.9245 16.1025 23.0991 16.2505 23.288L17.4311 22.3627C17.2136 22.0851 16.9635 21.8375 16.5524 21.4277L15.4933 22.49ZM17.9324 23.1225C17.7863 22.8561 17.6186 22.6019 17.4311 22.3627L16.2505 23.288C16.3877 23.463 16.5104 23.649 16.6173 23.8439L17.9324 23.1225ZM18.3451 24.2686C18.3514 24.2623 18.3619 24.2558 18.3735 24.2526C18.3833 24.2498 18.3907 24.2501 18.3959 24.2512C18.401 24.2522 18.4096 24.2551 18.4199 24.2632C18.4316 24.2726 18.441 24.2856 18.4457 24.2974L17.0523 24.8528C17.4363 25.8159 18.6842 26.0486 19.4041 25.3309L18.3451 24.2686ZM16.0303 20.9701L15.7491 20.6889L14.6885 21.7495L14.9697 22.0307L16.0303 20.9701ZM8.04299 15.062L8.21923 15.2382L9.27989 14.1776L9.10365 14.0013L8.04299 15.062Z" fill="#1C274C"/>
<path opacity="0.5" d="M13.8562 17.17C14.1495 16.8776 14.1502 16.4027 13.8578 16.1094C13.5653 15.816 13.0904 15.8153 12.7971 16.1078L13.8562 17.17ZM11.7961 19.2239L13.8562 17.17L12.7971 16.1078L10.7371 18.1616L11.7961 19.2239ZM19.6639 12.0001C19.1981 12.4645 18.442 12.4645 17.9762 12.0001L16.9172 13.0623C17.9683 14.1104 19.6717 14.1104 20.7229 13.0623L19.6639 12.0001ZM17.9762 12.0001C17.5117 11.5369 17.5117 10.787 17.9762 10.3239L16.9172 9.26161C15.8647 10.3109 15.8647 12.0131 16.9172 13.0623L17.9762 12.0001ZM17.9762 10.3239C18.442 9.85949 19.1981 9.85949 19.6639 10.3239L20.7229 9.26161C19.6717 8.21358 17.9683 8.21358 16.9172 9.26161L17.9762 10.3239ZM19.6639 10.3239C20.1284 10.787 20.1284 11.5369 19.6639 12.0001L20.7229 13.0623C21.7754 12.0131 21.7754 10.3109 20.7229 9.26161L19.6639 10.3239Z" fill="#1C274C"/>
</svg>
