<svg width="25" height="25" viewBox="0 0 25 25" fill="none" xmlns="http://www.w3.org/2000/svg">
<path d="M11.0417 17.2916L18.3854 9.94784L16.9271 8.4895L11.0417 14.3749L8.07293 11.4062L6.61459 12.8645L11.0417 17.2916ZM12.5 22.9166C11.059 22.9166 9.70487 22.643 8.43751 22.0958C7.17015 21.5492 6.06772 20.8072 5.13022 19.8697C4.19272 18.9322 3.4507 17.8298 2.90418 16.5624C2.35695 15.2951 2.08334 13.9409 2.08334 12.4999C2.08334 11.0589 2.35695 9.70478 2.90418 8.43742C3.4507 7.17006 4.19272 6.06763 5.13022 5.13013C6.06772 4.19263 7.17015 3.45027 8.43751 2.90304C9.70487 2.35652 11.059 2.08325 12.5 2.08325C13.941 2.08325 15.2951 2.35652 16.5625 2.90304C17.8299 3.45027 18.9323 4.19263 19.8698 5.13013C20.8073 6.06763 21.5493 7.17006 22.0958 8.43742C22.6431 9.70478 22.9167 11.0589 22.9167 12.4999C22.9167 13.9409 22.6431 15.2951 22.0958 16.5624C21.5493 17.8298 20.8073 18.9322 19.8698 19.8697C18.9323 20.8072 17.8299 21.5492 16.5625 22.0958C15.2951 22.643 13.941 22.9166 12.5 22.9166Z" fill="#E7E7E7"/>
</svg>
