<svg width="40" height="40" viewBox="0 0 40 40" fill="none" xmlns="http://www.w3.org/2000/svg">
<g clip-path="url(#clip0_35_10)">
<path d="M5.78125 16.25H5C4.66848 16.25 4.35054 16.3817 4.11612 16.6161C3.8817 16.8505 3.75 17.1685 3.75 17.5V18.75C3.75 19.0815 3.8817 19.3995 4.11612 19.6339C4.35054 19.8683 4.66848 20 5 20H6.24531C6.23444 23.3713 5.8163 26.729 5 30H15C14.1837 26.729 13.7656 23.3713 13.7547 20H15C15.3315 20 15.6495 19.8683 15.8839 19.6339C16.1183 19.3995 16.25 19.0815 16.25 18.75V17.5C16.25 17.1685 16.1183 16.8505 15.8839 16.6161C15.6495 16.3817 15.3315 16.25 15 16.25H14.2188L16.8664 9.18906C16.9374 8.99982 16.9614 8.79619 16.9365 8.59561C16.9115 8.39504 16.8383 8.20351 16.7231 8.03745C16.6079 7.87138 16.4541 7.73573 16.275 7.64213C16.0958 7.54852 15.8967 7.49975 15.6945 7.5H11.25V5H13.125C13.2908 5 13.4497 4.93415 13.5669 4.81694C13.6842 4.69973 13.75 4.54076 13.75 4.375V3.125C13.75 2.95924 13.6842 2.80027 13.5669 2.68306C13.4497 2.56585 13.2908 2.5 13.125 2.5H11.25V0.625C11.25 0.45924 11.1842 0.300269 11.0669 0.183058C10.9497 0.065848 10.7908 0 10.625 0L9.375 0C9.20924 0 9.05027 0.065848 8.93306 0.183058C8.81585 0.300269 8.75 0.45924 8.75 0.625V2.5H6.875C6.70924 2.5 6.55027 2.56585 6.43306 2.68306C6.31585 2.80027 6.25 2.95924 6.25 3.125V4.375C6.25 4.54076 6.31585 4.69973 6.43306 4.81694C6.55027 4.93415 6.70924 5 6.875 5H8.75V7.5H4.30391C4.10179 7.49975 3.90262 7.54852 3.72348 7.64213C3.54435 7.73573 3.39058 7.87138 3.27536 8.03745C3.16015 8.20351 3.08692 8.39504 3.06195 8.59561C3.03699 8.79619 3.06104 8.99982 3.13203 9.18906L5.78125 16.25ZM19.3094 35.9047L17.5 35V33.75C17.5 33.4185 17.3683 33.1005 17.1339 32.8661C16.8995 32.6317 16.5815 32.5 16.25 32.5H3.75C3.41848 32.5 3.10054 32.6317 2.86612 32.8661C2.6317 33.1005 2.5 33.4185 2.5 33.75V35L0.691406 35.9047C0.483705 36.0084 0.309004 36.168 0.186884 36.3654C0.0647637 36.5629 5.1408e-05 36.7905 0 37.0227L0 38.75C0 39.0815 0.131696 39.3995 0.366117 39.6339C0.600537 39.8683 0.918479 40 1.25 40H18.75C19.0815 40 19.3995 39.8683 19.6339 39.6339C19.8683 39.3995 20 39.0815 20 38.75V37.0227C20 36.7906 19.9354 36.5631 19.8134 36.3656C19.6915 36.1681 19.5169 36.0085 19.3094 35.9047V35.9047ZM26.557 23.5781L26.3 30H36.2L35.943 23.5773L37.8648 21.9531C38.1425 21.7182 38.3656 21.4255 38.5185 21.0954C38.6713 20.7654 38.7504 20.4059 38.75 20.0422V15.4688C38.75 15.3444 38.7006 15.2252 38.6127 15.1373C38.5248 15.0494 38.4056 15 38.2812 15H36.2203C36.096 15 35.9768 15.0494 35.8889 15.1373C35.8009 15.2252 35.7516 15.3444 35.7516 15.4688V17.5H33.8211V15.4688C33.8211 15.3444 33.7717 15.2252 33.6838 15.1373C33.5959 15.0494 33.4767 15 33.3523 15H29.1484C29.0241 15 28.9049 15.0494 28.817 15.1373C28.7291 15.2252 28.6797 15.3444 28.6797 15.4688V17.5H26.7492V15.4688C26.7492 15.3444 26.6998 15.2252 26.6119 15.1373C26.524 15.0494 26.4048 15 26.2805 15H24.2188C24.0944 15 23.9752 15.0494 23.8873 15.1373C23.7994 15.2252 23.75 15.3444 23.75 15.4688V20.0469C23.7506 20.41 23.8303 20.7686 23.9836 21.0978C24.1369 21.427 24.36 21.7189 24.6375 21.9531L26.557 23.5781ZM30 23.75C30 23.4185 30.1317 23.1005 30.3661 22.8661C30.6005 22.6317 30.9185 22.5 31.25 22.5C31.5815 22.5 31.8995 22.6317 32.1339 22.8661C32.3683 23.1005 32.5 23.4185 32.5 23.75V26.25H30V23.75ZM39.3094 35.9047L37.5 35V33.75C37.5 33.4185 37.3683 33.1005 37.1339 32.8661C36.8995 32.6317 36.5815 32.5 36.25 32.5H26.25C25.9185 32.5 25.6005 32.6317 25.3661 32.8661C25.1317 33.1005 25 33.4185 25 33.75V35L23.1914 35.9047C22.9837 36.0084 22.809 36.168 22.6869 36.3654C22.5648 36.5629 22.5001 36.7905 22.5 37.0227V38.75C22.5 39.0815 22.6317 39.3995 22.8661 39.6339C23.1005 39.8683 23.4185 40 23.75 40H38.75C39.0815 40 39.3995 39.8683 39.6339 39.6339C39.8683 39.3995 40 39.0815 40 38.75V37.0227C40 36.7906 39.9354 36.5631 39.8134 36.3656C39.6915 36.1681 39.5169 36.0085 39.3094 35.9047V35.9047Z" fill="#E7E7E7"/>
</g>
<defs>
<clipPath id="clip0_35_10">
<rect width="40" height="40" fill="white"/>
</clipPath>
</defs>
</svg>
