<svg width="40" height="40" viewBox="0 0 40 40" fill="none" xmlns="http://www.w3.org/2000/svg">
<path d="M37.4333 9.99984C36.15 10.5832 34.7667 10.9665 33.3333 11.1498C34.8 10.2665 35.9333 8.8665 36.4667 7.18317C35.0833 8.0165 33.55 8.59984 31.9333 8.93317C30.6167 7.49984 28.7667 6.6665 26.6667 6.6665C22.75 6.6665 19.55 9.8665 19.55 13.8165C19.55 14.3832 19.6167 14.9332 19.7333 15.4498C13.8 15.1498 8.51668 12.2998 5.00001 7.98317C4.38335 9.03317 4.03335 10.2665 4.03335 11.5665C4.03335 14.0498 5.28335 16.2498 7.21668 17.4998C6.03335 17.4998 4.93335 17.1665 3.96668 16.6665V16.7165C3.96668 20.1832 6.43335 23.0832 9.70001 23.7332C8.65123 24.0202 7.55017 24.0601 6.48335 23.8498C6.93603 25.2706 7.82258 26.5139 9.01838 27.4047C10.2142 28.2956 11.6591 28.7893 13.15 28.8165C10.6227 30.8172 7.49001 31.8987 4.26668 31.8832C3.70001 31.8832 3.13335 31.8498 2.56668 31.7832C5.73335 33.8165 9.50001 34.9998 13.5333 34.9998C26.6667 34.9998 33.8834 24.0998 33.8834 14.6498C33.8834 14.3332 33.8833 14.0332 33.8667 13.7165C35.2667 12.7165 36.4667 11.4498 37.4333 9.99984V9.99984Z" fill="#E7E7E7"/>
</svg>
