<svg width="40" height="40" viewBox="0 0 40 40" fill="none" xmlns="http://www.w3.org/2000/svg">
<path d="M31.75 8.18311C30.222 6.63965 28.402 5.41589 26.3961 4.58319C24.3902 3.7505 22.2385 3.32554 20.0667 3.33311C10.9667 3.33311 3.55002 10.7498 3.55002 19.8498C3.55002 22.7664 4.31669 25.5998 5.75002 28.0998L3.41669 36.6664L12.1667 34.3664C14.5834 35.6831 17.3 36.3831 20.0667 36.3831C29.1667 36.3831 36.5834 28.9664 36.5834 19.8664C36.5834 15.4498 34.8667 11.2998 31.75 8.18311V8.18311ZM20.0667 33.5831C17.6 33.5831 15.1834 32.9164 13.0667 31.6664L12.5667 31.3664L7.36669 32.7331L8.75002 27.6664L8.41669 27.1498C7.04626 24.9614 6.31859 22.4318 6.31669 19.8498C6.31669 12.2831 12.4834 6.11644 20.05 6.11644C23.7167 6.11644 27.1667 7.54977 29.75 10.1498C31.0292 11.423 32.0429 12.9375 32.7323 14.6055C33.4218 16.2734 33.7734 18.0616 33.7667 19.8664C33.8 27.4331 27.6334 33.5831 20.0667 33.5831V33.5831ZM27.6 23.3164C27.1834 23.1164 25.15 22.1164 24.7834 21.9664C24.4 21.8331 24.1334 21.7664 23.85 22.1664C23.5667 22.5831 22.7834 23.5164 22.55 23.7831C22.3167 24.0664 22.0667 24.0998 21.65 23.8831C21.2334 23.6831 19.9 23.2331 18.3334 21.8331C17.1 20.7331 16.2834 19.3831 16.0334 18.9664C15.8 18.5498 16 18.3331 16.2167 18.1164C16.4 17.9331 16.6334 17.6331 16.8334 17.3998C17.0334 17.1664 17.1167 16.9831 17.25 16.7164C17.3834 16.4331 17.3167 16.1998 17.2167 15.9998C17.1167 15.7998 16.2834 13.7664 15.95 12.9331C15.6167 12.1331 15.2667 12.2331 15.0167 12.2164H14.2167C13.9334 12.2164 13.5 12.3164 13.1167 12.7331C12.75 13.1498 11.6834 14.1498 11.6834 16.1831C11.6834 18.2164 13.1667 20.1831 13.3667 20.4498C13.5667 20.7331 16.2834 24.8998 20.4167 26.6831C21.4 27.1164 22.1667 27.3664 22.7667 27.5498C23.75 27.8664 24.65 27.8164 25.3667 27.7164C26.1667 27.5998 27.8167 26.7164 28.15 25.7498C28.5 24.7831 28.5 23.9664 28.3834 23.7831C28.2667 23.5998 28.0167 23.5164 27.6 23.3164V23.3164Z" fill="#1f1f1f"/>
</svg>
