<svg width="40" height="40" viewBox="0 0 40 40" fill="none" xmlns="http://www.w3.org/2000/svg">
<path d="M13 3.3335H27C32.3333 3.3335 36.6666 7.66683 36.6666 13.0002V27.0002C36.6666 29.5639 35.6482 32.0227 33.8353 33.8355C32.0225 35.6484 29.5637 36.6668 27 36.6668H13C7.66665 36.6668 3.33331 32.3335 3.33331 27.0002V13.0002C3.33331 10.4364 4.35176 7.97765 6.16461 6.1648C7.97747 4.35195 10.4362 3.3335 13 3.3335M12.6666 6.66683C11.0753 6.66683 9.54922 7.29897 8.42401 8.42419C7.29879 9.54941 6.66665 11.0755 6.66665 12.6668V27.3335C6.66665 30.6502 9.34998 33.3335 12.6666 33.3335H27.3333C28.9246 33.3335 30.4507 32.7014 31.576 31.5761C32.7012 30.4509 33.3333 28.9248 33.3333 27.3335V12.6668C33.3333 9.35016 30.65 6.66683 27.3333 6.66683H12.6666ZM28.75 9.16683C29.3025 9.16683 29.8324 9.38632 30.2231 9.77702C30.6138 10.1677 30.8333 10.6976 30.8333 11.2502C30.8333 11.8027 30.6138 12.3326 30.2231 12.7233C29.8324 13.114 29.3025 13.3335 28.75 13.3335C28.1974 13.3335 27.6675 13.114 27.2768 12.7233C26.8861 12.3326 26.6666 11.8027 26.6666 11.2502C26.6666 10.6976 26.8861 10.1677 27.2768 9.77702C27.6675 9.38632 28.1974 9.16683 28.75 9.16683ZM20 11.6668C22.2101 11.6668 24.3297 12.5448 25.8925 14.1076C27.4553 15.6704 28.3333 17.79 28.3333 20.0002C28.3333 22.2103 27.4553 24.3299 25.8925 25.8927C24.3297 27.4555 22.2101 28.3335 20 28.3335C17.7898 28.3335 15.6702 27.4555 14.1074 25.8927C12.5446 24.3299 11.6666 22.2103 11.6666 20.0002C11.6666 17.79 12.5446 15.6704 14.1074 14.1076C15.6702 12.5448 17.7898 11.6668 20 11.6668M20 15.0002C18.6739 15.0002 17.4021 15.5269 16.4644 16.4646C15.5268 17.4023 15 18.6741 15 20.0002C15 21.3262 15.5268 22.598 16.4644 23.5357C17.4021 24.4734 18.6739 25.0002 20 25.0002C21.3261 25.0002 22.5978 24.4734 23.5355 23.5357C24.4732 22.598 25 21.3262 25 20.0002C25 18.6741 24.4732 17.4023 23.5355 16.4646C22.5978 15.5269 21.3261 15.0002 20 15.0002Z" fill="#E7E7E7"/>
</svg>
