<svg width="40" height="40" viewBox="0 0 40 40" fill="none" xmlns="http://www.w3.org/2000/svg">
<path d="M27.6667 9.7C27.6667 9.7 28.5167 10.5333 27.6667 9.7C26.5274 8.39937 25.8995 6.72905 25.9 5H20.75V25.6667C20.7103 26.785 20.2381 27.8444 19.433 28.6216C18.6278 29.3988 17.5524 29.8332 16.4333 29.8333C14.0667 29.8333 12.1 27.9 12.1 25.5C12.1 22.6333 14.8667 20.4833 17.7167 21.3667V16.1C11.9667 15.3333 6.93335 19.8 6.93335 25.5C6.93335 31.05 11.5334 35 16.4167 35C21.65 35 25.9 30.75 25.9 25.5V15.0167C27.9883 16.5164 30.4956 17.3211 33.0667 17.3167V12.1667C33.0667 12.1667 29.9333 12.3167 27.6667 9.7Z" fill="#1f1f1f"/>
</svg>
