<svg width="40" height="40" viewBox="0 0 40 40" fill="none" xmlns="http://www.w3.org/2000/svg">
<path d="M3.33331 20C3.33315 22.6169 3.94923 25.1971 5.13166 27.5317C6.31409 29.8663 8.02965 31.8896 10.1394 33.4378C12.2492 34.9861 14.6939 36.0158 17.2757 36.4435C19.8574 36.8713 22.5036 36.6851 25 35.9C21.616 34.8365 18.6595 32.7211 16.5607 29.8615C14.4618 27.0019 13.3301 23.5472 13.3301 20C13.3301 16.4528 14.4618 12.9981 16.5607 10.1385C18.6595 7.2789 21.616 5.16349 25 4.10002C22.5036 3.31494 19.8574 3.12874 17.2757 3.5565C14.6939 3.98426 12.2492 5.01395 10.1394 6.56221C8.02965 8.11047 6.31409 10.1338 5.13166 12.4683C3.94923 14.8029 3.33315 17.3831 3.33331 20V20Z" fill="#1F1F1F"/>
</svg>
