<svg width="40" height="40" viewBox="0 0 40 40" fill="none" xmlns="http://www.w3.org/2000/svg">
<path d="M20 8.75C17.775 8.75 15.5999 9.4098 13.7498 10.646C11.8998 11.8821 10.4578 13.6391 9.60636 15.6948C8.75487 17.7505 8.53208 20.0125 8.96617 22.1948C9.40025 24.3771 10.4717 26.3816 12.045 27.955C13.6184 29.5283 15.6229 30.5998 17.8052 31.0338C19.9875 31.4679 22.2495 31.2451 24.3052 30.3936C26.3609 29.5422 28.1179 28.1002 29.354 26.2502C30.5902 24.4001 31.25 22.225 31.25 20C31.2459 17.0176 30.0593 14.1585 27.9504 12.0496C25.8415 9.94073 22.9824 8.75413 20 8.75ZM20 27.5C18.5166 27.5 17.0666 27.0601 15.8332 26.236C14.5999 25.4119 13.6386 24.2406 13.0709 22.8701C12.5032 21.4997 12.3547 19.9917 12.6441 18.5368C12.9335 17.082 13.6478 15.7456 14.6967 14.6967C15.7456 13.6478 17.082 12.9335 18.5368 12.6441C19.9917 12.3547 21.4997 12.5032 22.8701 13.0709C24.2406 13.6386 25.4119 14.5999 26.236 15.8332C27.0601 17.0666 27.5 18.5166 27.5 20C27.5 21.9891 26.7098 23.8968 25.3033 25.3033C23.8968 26.7098 21.9891 27.5 20 27.5ZM18.125 4.375V3.125C18.125 2.62772 18.3225 2.15081 18.6742 1.79917C19.0258 1.44754 19.5027 1.25 20 1.25C20.4973 1.25 20.9742 1.44754 21.3258 1.79917C21.6775 2.15081 21.875 2.62772 21.875 3.125V4.375C21.875 4.87228 21.6775 5.34919 21.3258 5.70083C20.9742 6.05246 20.4973 6.25 20 6.25C19.5027 6.25 19.0258 6.05246 18.6742 5.70083C18.3225 5.34919 18.125 4.87228 18.125 4.375ZM29.7188 10.2812C29.5439 10.1071 29.4053 9.90007 29.3106 9.67216C29.216 9.44425 29.1673 9.1999 29.1673 8.95312C29.1673 8.70635 29.216 8.462 29.3106 8.23409C29.4053 8.00618 29.5439 7.79919 29.7188 7.625L30.6094 6.73438C30.9616 6.38213 31.4394 6.18425 31.9375 6.18425C32.4356 6.18425 32.9134 6.38213 33.2656 6.73438C33.6179 7.08662 33.8158 7.56436 33.8158 8.0625C33.8158 8.56064 33.6179 9.03838 33.2656 9.39062L32.375 10.2812C32.2004 10.4552 31.9933 10.5931 31.7654 10.6869C31.5375 10.7807 31.2933 10.8287 31.0469 10.8281C30.5498 10.826 30.0732 10.6297 29.7188 10.2812ZM38.75 20C38.75 20.4973 38.5525 20.9742 38.2008 21.3258C37.8492 21.6775 37.3723 21.875 36.875 21.875H35.625C35.1277 21.875 34.6508 21.6775 34.2992 21.3258C33.9475 20.9742 33.75 20.4973 33.75 20C33.75 19.5027 33.9475 19.0258 34.2992 18.6742C34.6508 18.3225 35.1277 18.125 35.625 18.125H36.875C37.3723 18.125 37.8492 18.3225 38.2008 18.6742C38.5525 19.0258 38.75 19.5027 38.75 20ZM33.2656 30.6094C33.6112 30.9651 33.8044 31.4416 33.8044 31.9375C33.8044 32.4334 33.6112 32.9099 33.2656 33.2656C32.9093 33.6113 32.4339 33.8071 31.9375 33.8125C31.691 33.8131 31.4469 33.7651 31.219 33.6713C30.9911 33.5774 30.7839 33.4396 30.6094 33.2656L29.7188 32.375C29.3665 32.0228 29.1686 31.545 29.1686 31.0469C29.1686 30.5487 29.3665 30.071 29.7188 29.7188C30.071 29.3665 30.5487 29.1686 31.0469 29.1686C31.545 29.1686 32.0228 29.3665 32.375 29.7188L33.2656 30.6094ZM21.875 35.625V36.875C21.875 37.3723 21.6775 37.8492 21.3258 38.2008C20.9742 38.5525 20.4973 38.75 20 38.75C19.5027 38.75 19.0258 38.5525 18.6742 38.2008C18.3225 37.8492 18.125 37.3723 18.125 36.875V35.625C18.125 35.1277 18.3225 34.6508 18.6742 34.2992C19.0258 33.9475 19.5027 33.75 20 33.75C20.4973 33.75 20.9742 33.9475 21.3258 34.2992C21.6775 34.6508 21.875 35.1277 21.875 35.625ZM10.2812 29.7188C10.456 29.8929 10.5947 30.0999 10.6894 30.3278C10.784 30.5557 10.8327 30.8001 10.8327 31.0469C10.8327 31.2937 10.784 31.538 10.6894 31.7659C10.5947 31.9938 10.456 32.2008 10.2812 32.375L9.39062 33.2656C9.21605 33.4396 9.0089 33.5774 8.781 33.6713C8.55311 33.7651 8.30895 33.8131 8.0625 33.8125C7.56608 33.8071 7.09067 33.6113 6.73438 33.2656C6.38884 32.9099 6.19556 32.4334 6.19556 31.9375C6.19556 31.4416 6.38884 30.9651 6.73438 30.6094L7.625 29.7188C7.79919 29.5439 8.00618 29.4053 8.23409 29.3106C8.462 29.216 8.70635 29.1673 8.95312 29.1673C9.1999 29.1673 9.44425 29.216 9.67216 29.3106C9.90007 29.4053 10.1071 29.5439 10.2812 29.7188ZM6.25 20C6.25 20.4973 6.05246 20.9742 5.70083 21.3258C5.34919 21.6775 4.87228 21.875 4.375 21.875H3.125C2.62772 21.875 2.15081 21.6775 1.79917 21.3258C1.44754 20.9742 1.25 20.4973 1.25 20C1.25 19.5027 1.44754 19.0258 1.79917 18.6742C2.15081 18.3225 2.62772 18.125 3.125 18.125H4.375C4.87228 18.125 5.34919 18.3225 5.70083 18.6742C6.05246 19.0258 6.25 19.5027 6.25 20ZM6.73438 9.39062C6.38213 9.03838 6.18425 8.56064 6.18425 8.0625C6.18425 7.56436 6.38213 7.08662 6.73438 6.73438C7.08662 6.38213 7.56436 6.18425 8.0625 6.18425C8.56064 6.18425 9.03838 6.38213 9.39062 6.73438L10.2812 7.625C10.456 7.79919 10.5947 8.00618 10.6894 8.23409C10.784 8.462 10.8327 8.70635 10.8327 8.95312C10.8327 9.1999 10.784 9.44425 10.6894 9.67216C10.5947 9.90007 10.456 10.1071 10.2812 10.2812C9.92678 10.6297 9.4502 10.826 8.95312 10.8281C8.70667 10.8287 8.46251 10.7807 8.23462 10.6869C8.00673 10.5931 7.79957 10.4552 7.625 10.2812L6.73438 9.39062Z" fill="#E7E7E7"/>
</svg>
